<svg xmlns="http://www.w3.org/2000/svg" viewBox="0 0 100 100" width="100" height="100">
    <path d="M50,20 a10,10 0 0,1 10,10 l0,8.3 a35,35 0 0,1 17.8,6.1 l7.1,-4.1 a10,10 0 0,1 14,10 l0,14.1 a10,10 0 0,1 -7,9.4 l-7.1,4.1 a35,35 0 0,1 0,12.3 l7.1,4.1 a10,10 0 0,1 7,9.4 l0,14.1 a10,10 0 0,1 -14,10 l-7.1,-4.1 a35,35 0 0,1 -17.8,6.1 l0,8.3 a10,10 0 0,1 -20,0 l0,-8.3 a35,35 0 0,1 -17.8,-6.1 l-7.1,4.1 a10,10 0 0,1 -14,-10 l0,-14.1 a10,10 0 0,1 7,-9.4 l7.1,-4.1 a35,35 0 0,1 0,-12.3 l-7.1,-4.1 a10,10 0 0,1 -7,-9.4 l0,-14.1 a10,10 0 0,1 14,-10 l7.1,4.1 a35,35 0 0,1 17.8,-6.1 l0,-8.3 a10,10 0 0,1 10,-10 Z m0,20 a15,15 0 1,0 15,15 a15,15 0 0,0 -15,-15 Z"/>
</svg>