<svg xmlns="http://www.w3.org/2000/svg" width="120" height="120" viewBox="0 0 120 120">
  <defs>
    <linearGradient id="bg-gradient" x1="0%" y1="0%" x2="100%" y2="100%">
      <stop offset="0%" style="stop-color:#5FD5FF; stop-opacity:1" />
      <stop offset="100%" style="stop-color:#1B5AE5; stop-opacity:1" />
    </linearGradient>
  </defs>
  <rect x="0" y="0" width="120" height="120" fill="url(#bg-gradient)" />
  <g id="circuit-icon" transform="translate(33 30)">
    <path d="M11,0 C17.0751,0 22,4.92487 22,11" fill="none" stroke="#FFFFFF" stroke-width="3"/>
    <circle cx="11" cy="11" r="7" fill="none" stroke="#FFFFFF" stroke-width="3"/>
    <path d="M0,11 C0,4.92487 4.92487,0 11,0" fill="none" stroke="#FFFFFF" stroke-width="3"/>

    <path d="M14,44 C7.92487,44 3,39.0751 3,33" fill="none" stroke="#FFFFFF" stroke-width="3"/>
    <circle cx="12" cy="33" r="7" fill="none" stroke="#FFFFFF" stroke-width="3"/>
    <path d="M22,33 C22,26.9249 17.0751,22 11,22" fill="none" stroke="#FFFFFF" stroke-width="3"/>

    <path d="M33,22 C39.0751,22 44,26.9249 44,33" fill="none" stroke="#FFFFFF" stroke-width="3"/>
    <circle cx="33" cy="11" r="7" fill="none" stroke="#FFFFFF" stroke-width="3"/>
    <path d="M33,0 C26.9249,0 22,4.92487 22,11" fill="none" stroke="#FFFFFF" stroke-width="3"/>

    <path d="M33,44 C26.9249,44 22,39.0751 22,33" fill="none" stroke="#FFFFFF" stroke-width="3"/>
  </g>
  <rect x="0" y="0" width="120" height="120" fill="none" stroke="#FFFFFF" stroke-width="6"/>
</svg>