<svg version="1.1" viewBox="0.0 0.0 600.0 371.0" fill="none" stroke="none" stroke-linecap="square" stroke-miterlimit="10" width="600" height="371" xmlns:xlink="http://www.w3.org/1999/xlink" xmlns="http://www.w3.org/2000/svg"><path fill="#ffffff" d="M0 0L600.0 0L600.0 371.0L0 371.0L0 0Z" fill-rule="nonzero"/><path stroke="#333333" stroke-width="1.0" stroke-linecap="butt" d="M101.5 332.5L581.5 332.5" fill-rule="nonzero"/><path stroke="#cccccc" stroke-width="1.0" stroke-linecap="butt" d="M101.5 271.5L581.5 271.5" fill-rule="nonzero"/><path stroke="#cccccc" stroke-width="1.0" stroke-linecap="butt" d="M101.5 210.5L581.5 210.5" fill-rule="nonzero"/><path stroke="#cccccc" stroke-width="1.0" stroke-linecap="butt" d="M101.5 149.5L581.5 149.5" fill-rule="nonzero"/><path stroke="#cccccc" stroke-width="1.0" stroke-linecap="butt" d="M101.5 88.5L581.5 88.5" fill-rule="nonzero"/><path stroke="#e6e6e6" stroke-width="1.0" stroke-linecap="butt" d="M101.5 320.5L581.5 320.5" fill-rule="nonzero"/><path stroke="#e6e6e6" stroke-width="1.0" stroke-linecap="butt" d="M101.5 308.5L581.5 308.5" fill-rule="nonzero"/><path stroke="#e6e6e6" stroke-width="1.0" stroke-linecap="butt" d="M101.5 295.5L581.5 295.5" fill-rule="nonzero"/><path stroke="#e6e6e6" stroke-width="1.0" stroke-linecap="butt" d="M101.5 283.5L581.5 283.5" fill-rule="nonzero"/><path stroke="#e6e6e6" stroke-width="1.0" stroke-linecap="butt" d="M101.5 259.5L581.5 259.5" fill-rule="nonzero"/><path stroke="#e6e6e6" stroke-width="1.0" stroke-linecap="butt" d="M101.5 246.5L581.5 246.5" fill-rule="nonzero"/><path stroke="#e6e6e6" stroke-width="1.0" stroke-linecap="butt" d="M101.5 234.5L581.5 234.5" fill-rule="nonzero"/><path stroke="#e6e6e6" stroke-width="1.0" stroke-linecap="butt" d="M101.5 222.5L581.5 222.5" fill-rule="nonzero"/><path stroke="#e6e6e6" stroke-width="1.0" stroke-linecap="butt" d="M101.5 198.5L581.5 198.5" fill-rule="nonzero"/><path stroke="#e6e6e6" stroke-width="1.0" stroke-linecap="butt" d="M101.5 185.5L581.5 185.5" fill-rule="nonzero"/><path stroke="#e6e6e6" stroke-width="1.0" stroke-linecap="butt" d="M101.5 173.5L581.5 173.5" fill-rule="nonzero"/><path stroke="#e6e6e6" stroke-width="1.0" stroke-linecap="butt" d="M101.5 161.5L581.5 161.5" fill-rule="nonzero"/><path stroke="#e6e6e6" stroke-width="1.0" stroke-linecap="butt" d="M101.5 137.5L581.5 137.5" fill-rule="nonzero"/><path stroke="#e6e6e6" stroke-width="1.0" stroke-linecap="butt" d="M101.5 124.5L581.5 124.5" fill-rule="nonzero"/><path stroke="#e6e6e6" stroke-width="1.0" stroke-linecap="butt" d="M101.5 112.5L581.5 112.5" fill-rule="nonzero"/><path stroke="#e6e6e6" stroke-width="1.0" stroke-linecap="butt" d="M101.5 100.5L581.5 100.5" fill-rule="nonzero"/><clipPath id="id_0"><path d="M101.55 88.28333L581.45 88.28333L581.45 332.45L101.55 332.45L101.55 88.28333Z" clip-rule="nonzero"/></clipPath><path stroke="#000000" stroke-width="0.0" stroke-linecap="butt" stroke-opacity="0.0" clip-path="url(#id_0)" d="M154.0 332.0L141.0 332.0L141.0 168.0C141.0 166.89543 141.89543 166.0 143.0 166.0L152.0 166.0C153.10457 166.0 154.0 166.89543 154.0 168.0Z" fill-rule="nonzero"/><path fill="#4285f4" clip-path="url(#id_0)" d="M154.0 332.0L141.0 332.0L141.0 168.0C141.0 166.89543 141.89543 166.0 143.0 166.0L152.0 166.0C153.10457 166.0 154.0 166.89543 154.0 168.0Z" fill-rule="nonzero"/><path stroke="#000000" stroke-width="0.0" stroke-linecap="butt" stroke-opacity="0.0" clip-path="url(#id_0)" d="M264.0 332.0L251.0 332.0L251.0 130.0C251.0 128.89543 251.89543 128.0 253.0 128.0L262.0 128.0C263.10458 128.0 264.0 128.89543 264.0 130.0Z" fill-rule="nonzero"/><path fill="#4285f4" clip-path="url(#id_0)" d="M264.0 332.0L251.0 332.0L251.0 130.0C251.0 128.89543 251.89543 128.0 253.0 128.0L262.0 128.0C263.10458 128.0 264.0 128.89543 264.0 130.0Z" fill-rule="nonzero"/><path stroke="#000000" stroke-width="0.0" stroke-linecap="butt" stroke-opacity="0.0" clip-path="url(#id_0)" d="M375.0 332.0L362.0 332.0L362.0 149.0C362.0 147.89543 362.89542 147.0 364.0 147.0L373.0 147.0C374.10458 147.0 375.0 147.89543 375.0 149.0Z" fill-rule="nonzero"/><path fill="#4285f4" clip-path="url(#id_0)" d="M375.0 332.0L362.0 332.0L362.0 149.0C362.0 147.89543 362.89542 147.0 364.0 147.0L373.0 147.0C374.10458 147.0 375.0 147.89543 375.0 149.0Z" fill-rule="nonzero"/><path stroke="#000000" stroke-width="0.0" stroke-linecap="butt" stroke-opacity="0.0" clip-path="url(#id_0)" d="M485.0 332.0L472.0 332.0L472.0 168.0C472.0 166.89543 472.89542 166.0 474.0 166.0L483.0 166.0C484.10458 166.0 485.0 166.89543 485.0 168.0Z" fill-rule="nonzero"/><path fill="#4285f4" clip-path="url(#id_0)" d="M485.0 332.0L472.0 332.0L472.0 168.0C472.0 166.89543 472.89542 166.0 474.0 166.0L483.0 166.0C484.10458 166.0 485.0 166.89543 485.0 168.0Z" fill-rule="nonzero"/><path stroke="#000000" stroke-width="0.0" stroke-linecap="butt" stroke-opacity="0.0" clip-path="url(#id_0)" d="M168.0 332.0L155.0 332.0L155.0 189.0C155.0 187.89543 155.89543 187.0 157.0 187.0L166.0 187.0C167.10457 187.0 168.0 187.89543 168.0 189.0Z" fill-rule="nonzero"/><path fill="#ea4335" clip-path="url(#id_0)" d="M168.0 332.0L155.0 332.0L155.0 189.0C155.0 187.89543 155.89543 187.0 157.0 187.0L166.0 187.0C167.10457 187.0 168.0 187.89543 168.0 189.0Z" fill-rule="nonzero"/><path stroke="#000000" stroke-width="0.0" stroke-linecap="butt" stroke-opacity="0.0" clip-path="url(#id_0)" d="M278.0 332.0L265.0 332.0L265.0 176.0C265.0 174.89543 265.89542 174.0 267.0 174.0L276.0 174.0C277.10458 174.0 278.0 174.89543 278.0 176.0Z" fill-rule="nonzero"/><path fill="#ea4335" clip-path="url(#id_0)" d="M278.0 332.0L265.0 332.0L265.0 176.0C265.0 174.89543 265.89542 174.0 267.0 174.0L276.0 174.0C277.10458 174.0 278.0 174.89543 278.0 176.0Z" fill-rule="nonzero"/><path stroke="#000000" stroke-width="0.0" stroke-linecap="butt" stroke-opacity="0.0" clip-path="url(#id_0)" d="M389.0 332.0L376.0 332.0L376.0 169.0C376.0 167.89543 376.89542 167.0 378.0 167.0L387.0 167.0C388.10458 167.0 389.0 167.89543 389.0 169.0Z" fill-rule="nonzero"/><path fill="#ea4335" clip-path="url(#id_0)" d="M389.0 332.0L376.0 332.0L376.0 169.0C376.0 167.89543 376.89542 167.0 378.0 167.0L387.0 167.0C388.10458 167.0 389.0 167.89543 389.0 169.0Z" fill-rule="nonzero"/><path stroke="#000000" stroke-width="0.0" stroke-linecap="butt" stroke-opacity="0.0" clip-path="url(#id_0)" d="M499.0 332.0L486.0 332.0L486.0 239.0C486.0 237.89543 486.89542 237.0 488.0 237.0L497.0 237.0C498.10458 237.0 499.0 237.89543 499.0 239.0Z" fill-rule="nonzero"/><path fill="#ea4335" clip-path="url(#id_0)" d="M499.0 332.0L486.0 332.0L486.0 239.0C486.0 237.89543 486.89542 237.0 488.0 237.0L497.0 237.0C498.10458 237.0 499.0 237.89543 499.0 239.0Z" fill-rule="nonzero"/><path stroke="#000000" stroke-width="0.0" stroke-linecap="butt" stroke-opacity="0.0" clip-path="url(#id_0)" d="M182.0 332.0L169.0 332.0L169.0 316.0C169.0 314.89542 169.89543 314.0 171.0 314.0L180.0 314.0C181.10457 314.0 182.0 314.89542 182.0 316.0Z" fill-rule="nonzero"/><path fill="#fbbc04" clip-path="url(#id_0)" d="M182.0 332.0L169.0 332.0L169.0 316.0C169.0 314.89542 169.89543 314.0 171.0 314.0L180.0 314.0C181.10457 314.0 182.0 314.89542 182.0 316.0Z" fill-rule="nonzero"/><path stroke="#000000" stroke-width="0.0" stroke-linecap="butt" stroke-opacity="0.0" clip-path="url(#id_0)" d="M292.0 332.0L279.0 332.0L279.0 94.0C279.0 92.89543 279.89542 92.0 281.0 92.0L290.0 92.0C291.10458 92.0 292.0 92.89543 292.0 94.0Z" fill-rule="nonzero"/><path fill="#fbbc04" clip-path="url(#id_0)" d="M292.0 332.0L279.0 332.0L279.0 94.0C279.0 92.89543 279.89542 92.0 281.0 92.0L290.0 92.0C291.10458 92.0 292.0 92.89543 292.0 94.0Z" fill-rule="nonzero"/><path stroke="#000000" stroke-width="0.0" stroke-linecap="butt" stroke-opacity="0.0" clip-path="url(#id_0)" d="M403.0 332.0L390.0 332.0L390.0 308.0C390.0 306.89542 390.89542 306.0 392.0 306.0L401.0 306.0C402.10458 306.0 403.0 306.89542 403.0 308.0Z" fill-rule="nonzero"/><path fill="#fbbc04" clip-path="url(#id_0)" d="M403.0 332.0L390.0 332.0L390.0 308.0C390.0 306.89542 390.89542 306.0 392.0 306.0L401.0 306.0C402.10458 306.0 403.0 306.89542 403.0 308.0Z" fill-rule="nonzero"/><path stroke="#000000" stroke-width="0.0" stroke-linecap="butt" stroke-opacity="0.0" clip-path="url(#id_0)" d="M196.0 332.0L183.0 332.0L183.0 186.0C183.0 184.89543 183.89543 184.0 185.0 184.0L194.0 184.0C195.10457 184.0 196.0 184.89543 196.0 186.0Z" fill-rule="nonzero"/><path fill="#34a853" clip-path="url(#id_0)" d="M196.0 332.0L183.0 332.0L183.0 186.0C183.0 184.89543 183.89543 184.0 185.0 184.0L194.0 184.0C195.10457 184.0 196.0 184.89543 196.0 186.0Z" fill-rule="nonzero"/><path stroke="#000000" stroke-width="0.0" stroke-linecap="butt" stroke-opacity="0.0" clip-path="url(#id_0)" d="M306.0 332.0L293.0 332.0L293.0 113.0C293.0 111.89543 293.89542 111.0 295.0 111.0L304.0 111.0C305.10458 111.0 306.0 111.89543 306.0 113.0Z" fill-rule="nonzero"/><path fill="#34a853" clip-path="url(#id_0)" d="M306.0 332.0L293.0 332.0L293.0 113.0C293.0 111.89543 293.89542 111.0 295.0 111.0L304.0 111.0C305.10458 111.0 306.0 111.89543 306.0 113.0Z" fill-rule="nonzero"/><path stroke="#000000" stroke-width="0.0" stroke-linecap="butt" stroke-opacity="0.0" clip-path="url(#id_0)" d="M417.0 332.0L404.0 332.0L404.0 309.0C404.0 307.89542 404.89542 307.0 406.0 307.0L415.0 307.0C416.10458 307.0 417.0 307.89542 417.0 309.0Z" fill-rule="nonzero"/><path fill="#34a853" clip-path="url(#id_0)" d="M417.0 332.0L404.0 332.0L404.0 309.0C404.0 307.89542 404.89542 307.0 406.0 307.0L415.0 307.0C416.10458 307.0 417.0 307.89542 417.0 309.0Z" fill-rule="nonzero"/><path stroke="#000000" stroke-width="0.0" stroke-linecap="butt" stroke-opacity="0.0" clip-path="url(#id_0)" d="M527.0 332.0L514.0 332.0L514.0 308.0C514.0 306.89542 514.89545 306.0 516.0 306.0L525.0 306.0C526.10455 306.0 527.0 306.89542 527.0 308.0Z" fill-rule="nonzero"/><path fill="#34a853" clip-path="url(#id_0)" d="M527.0 332.0L514.0 332.0L514.0 308.0C514.0 306.89542 514.89545 306.0 516.0 306.0L525.0 306.0C526.10455 306.0 527.0 306.89542 527.0 308.0Z" fill-rule="nonzero"/><path stroke="#000000" stroke-width="0.0" stroke-linecap="butt" stroke-opacity="0.0" clip-path="url(#id_0)" d="M210.0 332.0L197.0 332.0L197.0 273.0C197.0 271.89542 197.89543 271.0 199.0 271.0L208.0 271.0C209.10457 271.0 210.0 271.89542 210.0 273.0Z" fill-rule="nonzero"/><path fill="#ff6d01" clip-path="url(#id_0)" d="M210.0 332.0L197.0 332.0L197.0 273.0C197.0 271.89542 197.89543 271.0 199.0 271.0L208.0 271.0C209.10457 271.0 210.0 271.89542 210.0 273.0Z" fill-rule="nonzero"/><path stroke="#000000" stroke-width="0.0" stroke-linecap="butt" stroke-opacity="0.0" clip-path="url(#id_0)" d="M431.0 332.0L418.0 332.0L418.0 244.0C418.0 242.89543 418.89542 242.0 420.0 242.0L429.0 242.0C430.10458 242.0 431.0 242.89543 431.0 244.0Z" fill-rule="nonzero"/><path fill="#ff6d01" clip-path="url(#id_0)" d="M431.0 332.0L418.0 332.0L418.0 244.0C418.0 242.89543 418.89542 242.0 420.0 242.0L429.0 242.0C430.10458 242.0 431.0 242.89543 431.0 244.0Z" fill-rule="nonzero"/><path fill="#000000" d="M29.550013 235.7573L21.971888 235.7573L21.971888 238.58542L20.956263 238.58542L20.956263 231.77292L21.971888 231.77292L21.971888 234.61667L29.550013 234.61667L29.550013 235.7573ZM22.175013 231.0698L20.956263 231.0698L20.956263 230.0073L22.175013 230.0073L22.175013 231.0698ZM29.550013 231.0698L23.331263 231.0698L23.331263 230.0073L29.550013 230.0073L29.550013 231.0698ZM29.550013 228.0698L23.331263 228.0698L23.331263 227.1323L24.206263 227.1323Q23.737513 226.83542 23.471888 226.35104Q23.190638 225.86667 23.190638 225.24167Q23.190638 224.55417 23.471888 224.11667Q23.753138 223.66354 24.268763 223.49167Q23.190638 222.74167 23.190638 221.5698Q23.190638 220.6323 23.706263 220.14792Q24.206263 219.64792 25.284388 219.64792L29.550013 219.64792L29.550013 220.6948L25.628138 220.6948Q25.003138 220.6948 24.721888 220.80417Q24.440638 220.89792 24.268763 221.16354Q24.096888 221.42917 24.096888 221.80417Q24.096888 222.46042 24.534388 222.89792Q24.971888 223.3198 25.940638 223.3198L29.550013 223.3198L29.550013 224.3823L25.503138 224.3823Q24.800013 224.3823 24.456263 224.64792Q24.096888 224.89792 24.096888 225.47604Q24.096888 225.92917 24.331263 226.30417Q24.565638 226.67917 25.018763 226.85104Q25.471888 227.02292 26.315638 227.02292L29.550013 227.02292L29.550013 228.0698ZM27.550013 213.8198L27.675013 212.72604Q28.628138 212.97604 29.159388 213.67917Q29.690638 214.3823 29.690638 215.46042Q29.690638 216.8198 28.846888 217.6323Q28.003138 218.42917 26.487513 218.42917Q24.925013 218.42917 24.065638 217.61667Q23.190638 216.80417 23.190638 215.52292Q23.190638 214.27292 24.034388 213.49167Q24.878138 212.6948 26.425013 212.6948Q26.518763 212.6948 26.706263 212.6948L26.706263 217.33542Q27.737513 217.27292 28.284388 216.7573Q28.815638 216.24167 28.815638 215.46042Q28.815638 214.8823 28.518763 214.47604Q28.206263 214.05417 27.550013 213.8198ZM25.846888 217.27292L25.846888 213.80417Q25.050013 213.86667 24.659388 214.1948Q24.050013 214.71042 24.050013 215.5073Q24.050013 216.24167 24.534388 216.74167Q25.018763 217.22604 25.846888 217.27292ZM32.08126 206.05417Q30.971888 206.92917 29.503138 207.53854Q28.018763 208.1323 26.440638 208.1323Q25.050013 208.1323 23.768763 207.6948Q22.284388 207.16354 20.815638 206.05417L20.815638 205.30417Q22.034388 206.0073 22.550013 206.24167Q23.362513 206.60104 24.237513 206.80417Q25.331263 207.05417 26.440638 207.05417Q29.268763 207.05417 32.08126 205.30417L32.08126 206.05417ZM27.690638 204.49167L27.534388 203.46042Q28.159388 203.36667 28.487513 202.97604Q28.815638 202.5698 28.815638 201.83542Q28.815638 201.11667 28.534388 200.77292Q28.237513 200.41354 27.831263 200.41354Q27.471888 200.41354 27.268763 200.72604Q27.128138 200.9448 26.909388 201.80417Q26.612513 202.96042 26.409388 203.41354Q26.190638 203.85104 25.815638 204.08542Q25.440638 204.3198 24.971888 204.3198Q24.565638 204.3198 24.206263 204.1323Q23.846888 203.9448 23.612513 203.61667Q23.440638 203.36667 23.315638 202.9448Q23.190638 202.52292 23.190638 202.02292Q23.190638 201.30417 23.409388 200.7573Q23.612513 200.1948 23.971888 199.92917Q24.331263 199.66354 24.925013 199.5698L25.065638 200.60104Q24.596888 200.66354 24.331263 201.0073Q24.050013 201.33542 24.050013 201.96042Q24.050013 202.67917 24.300013 202.99167Q24.534388 203.30417 24.862513 203.30417Q25.065638 203.30417 25.221888 203.17917Q25.393763 203.03854 25.503138 202.77292Q25.565638 202.61667 25.768763 201.83542Q26.081263 200.71042 26.268763 200.27292Q26.456263 199.83542 26.815638 199.58542Q27.175013 199.33542 27.721888 199.33542Q28.253138 199.33542 28.721888 199.64792Q29.175013 199.9448 29.440638 200.52292Q29.690638 201.10104 29.690638 201.83542Q29.690638 203.05417 29.190638 203.6948Q28.675013 204.3198 27.690638 204.49167ZM32.08126 197.3823L32.08126 198.1323Q29.268763 196.3823 26.440638 196.3823Q25.346888 196.3823 24.253138 196.6323Q23.378138 196.83542 22.565638 197.1948Q22.050013 197.42917 20.815638 198.1323L20.815638 197.3823Q22.284388 196.28854 23.768763 195.7573Q25.050013 195.30417 26.440638 195.30417Q28.018763 195.30417 29.503138 195.91354Q30.971888 196.52292 32.08126 197.3823Z" fill-rule="nonzero"/><path fill="#000000" d="M51.05 332.21564Q51.05 330.6844 51.3625 329.7625Q51.675 328.825 52.284374 328.325Q52.909374 327.825 53.846874 327.825Q54.534374 327.825 55.05 328.10626Q55.58125 328.3875 55.925 328.91876Q56.26875 329.4344 56.45625 330.1844Q56.64375 330.9344 56.64375 332.21564Q56.64375 333.73126 56.33125 334.65314Q56.034374 335.575 55.409374 336.09064Q54.8 336.59064 53.846874 336.59064Q52.6125 336.59064 51.89375 335.7Q51.05 334.6375 51.05 332.21564ZM52.128124 332.21564Q52.128124 334.325 52.628124 335.02814Q53.128124 335.73126 53.846874 335.73126Q54.58125 335.73126 55.065624 335.02814Q55.565624 334.325 55.565624 332.21564Q55.565624 330.09064 55.065624 329.40314Q54.58125 328.7 53.83125 328.7Q53.1125 328.7 52.675 329.3094Q52.128124 330.09064 52.128124 332.21564ZM58.64375 336.45L58.64375 335.2469L59.846874 335.2469L59.846874 336.45L58.64375 336.45ZM61.05 332.21564Q61.05 330.6844 61.3625 329.7625Q61.675 328.825 62.284374 328.325Q62.909374 327.825 63.846874 327.825Q64.53438 327.825 65.05 328.10626Q65.58125 328.3875 65.925 328.91876Q66.26875 329.4344 66.45625 330.1844Q66.64375 330.9344 66.64375 332.21564Q66.64375 333.73126 66.33125 334.65314Q66.03438 335.575 65.40938 336.09064Q64.8 336.59064 63.846874 336.59064Q62.6125 336.59064 61.89375 335.7Q61.05 334.6375 61.05 332.21564ZM62.128124 332.21564Q62.128124 334.325 62.628124 335.02814Q63.128124 335.73126 63.846874 335.73126Q64.58125 335.73126 65.06563 335.02814Q65.56563 334.325 65.56563 332.21564Q65.56563 330.09064 65.06563 329.40314Q64.58125 328.7 63.83125 328.7Q63.1125 328.7 62.675 329.3094Q62.128124 330.09064 62.128124 332.21564ZM68.05 332.21564Q68.05 330.6844 68.3625 329.7625Q68.675 328.825 69.28438 328.325Q69.90938 327.825 70.84688 327.825Q71.53438 327.825 72.05 328.10626Q72.58125 328.3875 72.925 328.91876Q73.26875 329.4344 73.45625 330.1844Q73.64375 330.9344 73.64375 332.21564Q73.64375 333.73126 73.33125 334.65314Q73.03438 335.575 72.40938 336.09064Q71.8 336.59064 70.84688 336.59064Q69.6125 336.59064 68.89375 335.7Q68.05 334.6375 68.05 332.21564ZM69.12813 332.21564Q69.12813 334.325 69.62813 335.02814Q70.12813 335.73126 70.84688 335.73126Q71.58125 335.73126 72.06563 335.02814Q72.56563 334.325 72.56563 332.21564Q72.56563 330.09064 72.06563 329.40314Q71.58125 328.7 70.83125 328.7Q70.1125 328.7 69.675 329.3094Q69.12813 330.09064 69.12813 332.21564ZM75.05 332.21564Q75.05 330.6844 75.3625 329.7625Q75.675 328.825 76.28438 328.325Q76.90938 327.825 77.84688 327.825Q78.53438 327.825 79.05 328.10626Q79.58125 328.3875 79.925 328.91876Q80.26875 329.4344 80.45625 330.1844Q80.64375 330.9344 80.64375 332.21564Q80.64375 333.73126 80.33125 334.65314Q80.03438 335.575 79.40938 336.09064Q78.8 336.59064 77.84688 336.59064Q76.6125 336.59064 75.89375 335.7Q75.05 334.6375 75.05 332.21564ZM76.12813 332.21564Q76.12813 334.325 76.62813 335.02814Q77.12813 335.73126 77.84688 335.73126Q78.58125 335.73126 79.06563 335.02814Q79.56563 334.325 79.56563 332.21564Q79.56563 330.09064 79.06563 329.40314Q78.58125 328.7 77.83125 328.7Q77.1125 328.7 76.675 329.3094Q76.12813 330.09064 76.12813 332.21564ZM82.05 332.21564Q82.05 330.6844 82.3625 329.7625Q82.675 328.825 83.28438 328.325Q83.90938 327.825 84.84688 327.825Q85.53438 327.825 86.05 328.10626Q86.58125 328.3875 86.925 328.91876Q87.26875 329.4344 87.45625 330.1844Q87.64375 330.9344 87.64375 332.21564Q87.64375 333.73126 87.33125 334.65314Q87.03438 335.575 86.40938 336.09064Q85.8 336.59064 84.84688 336.59064Q83.6125 336.59064 82.89375 335.7Q82.05 334.6375 82.05 332.21564ZM83.12813 332.21564Q83.12813 334.325 83.62813 335.02814Q84.12813 335.73126 84.84688 335.73126Q85.58125 335.73126 86.06563 335.02814Q86.56563 334.325 86.56563 332.21564Q86.56563 330.09064 86.06563 329.40314Q85.58125 328.7 84.83125 328.7Q84.1125 328.7 83.675 329.3094Q83.12813 330.09064 83.12813 332.21564ZM89.05 332.21564Q89.05 330.6844 89.3625 329.7625Q89.675 328.825 90.28438 328.325Q90.90938 327.825 91.84688 327.825Q92.53438 327.825 93.05 328.10626Q93.58125 328.3875 93.925 328.91876Q94.26875 329.4344 94.45625 330.1844Q94.64375 330.9344 94.64375 332.21564Q94.64375 333.73126 94.33125 334.65314Q94.03438 335.575 93.40938 336.09064Q92.8 336.59064 91.84688 336.59064Q90.6125 336.59064 89.89375 335.7Q89.05 334.6375 89.05 332.21564ZM90.12813 332.21564Q90.12813 334.325 90.62813 335.02814Q91.12813 335.73126 91.84688 335.73126Q92.58125 335.73126 93.06563 335.02814Q93.56563 334.325 93.56563 332.21564Q93.56563 330.09064 93.06563 329.40314Q92.58125 328.7 91.83125 328.7Q91.1125 328.7 90.675 329.3094Q90.12813 330.09064 90.12813 332.21564Z" fill-rule="nonzero"/><path fill="#000000" d="M51.05 271.17395Q51.05 269.6427 51.3625 268.72083Q51.675 267.78333 52.284374 267.28333Q52.909374 266.78333 53.846874 266.78333Q54.534374 266.78333 55.05 267.06458Q55.58125 267.34583 55.925 267.87708Q56.26875 268.3927 56.45625 269.1427Q56.64375 269.8927 56.64375 271.17395Q56.64375 272.68958 56.33125 273.61145Q56.034374 274.53333 55.409374 275.04895Q54.8 275.54895 53.846874 275.54895Q52.6125 275.54895 51.89375 274.65833Q51.05 273.59583 51.05 271.17395ZM52.128124 271.17395Q52.128124 273.28333 52.628124 273.98645Q53.128124 274.68958 53.846874 274.68958Q54.58125 274.68958 55.065624 273.98645Q55.565624 273.28333 55.565624 271.17395Q55.565624 269.04895 55.065624 268.36145Q54.58125 267.65833 53.83125 267.65833Q53.1125 267.65833 52.675 268.2677Q52.128124 269.04895 52.128124 271.17395ZM58.64375 275.40833L58.64375 274.2052L59.846874 274.2052L59.846874 275.40833L58.64375 275.40833ZM61.05 271.17395Q61.05 269.6427 61.3625 268.72083Q61.675 267.78333 62.284374 267.28333Q62.909374 266.78333 63.846874 266.78333Q64.53438 266.78333 65.05 267.06458Q65.58125 267.34583 65.925 267.87708Q66.26875 268.3927 66.45625 269.1427Q66.64375 269.8927 66.64375 271.17395Q66.64375 272.68958 66.33125 273.61145Q66.03438 274.53333 65.40938 275.04895Q64.8 275.54895 63.846874 275.54895Q62.6125 275.54895 61.89375 274.65833Q61.05 273.59583 61.05 271.17395ZM62.128124 271.17395Q62.128124 273.28333 62.628124 273.98645Q63.128124 274.68958 63.846874 274.68958Q64.58125 274.68958 65.06563 273.98645Q65.56563 273.28333 65.56563 271.17395Q65.56563 269.04895 65.06563 268.36145Q64.58125 267.65833 63.83125 267.65833Q63.1125 267.65833 62.675 268.2677Q62.128124 269.04895 62.128124 271.17395ZM68.05 271.17395Q68.05 269.6427 68.3625 268.72083Q68.675 267.78333 69.28438 267.28333Q69.90938 266.78333 70.84688 266.78333Q71.53438 266.78333 72.05 267.06458Q72.58125 267.34583 72.925 267.87708Q73.26875 268.3927 73.45625 269.1427Q73.64375 269.8927 73.64375 271.17395Q73.64375 272.68958 73.33125 273.61145Q73.03438 274.53333 72.40938 275.04895Q71.8 275.54895 70.84688 275.54895Q69.6125 275.54895 68.89375 274.65833Q68.05 273.59583 68.05 271.17395ZM69.12813 271.17395Q69.12813 273.28333 69.62813 273.98645Q70.12813 274.68958 70.84688 274.68958Q71.58125 274.68958 72.06563 273.98645Q72.56563 273.28333 72.56563 271.17395Q72.56563 269.04895 72.06563 268.36145Q71.58125 267.65833 70.83125 267.65833Q70.1125 267.65833 69.675 268.2677Q69.12813 269.04895 69.12813 271.17395ZM75.05 271.17395Q75.05 269.6427 75.3625 268.72083Q75.675 267.78333 76.28438 267.28333Q76.90938 266.78333 77.84688 266.78333Q78.53438 266.78333 79.05 267.06458Q79.58125 267.34583 79.925 267.87708Q80.26875 268.3927 80.45625 269.1427Q80.64375 269.8927 80.64375 271.17395Q80.64375 272.68958 80.33125 273.61145Q80.03438 274.53333 79.40938 275.04895Q78.8 275.54895 77.84688 275.54895Q76.6125 275.54895 75.89375 274.65833Q75.05 273.59583 75.05 271.17395ZM76.12813 271.17395Q76.12813 273.28333 76.62813 273.98645Q77.12813 274.68958 77.84688 274.68958Q78.58125 274.68958 79.06563 273.98645Q79.56563 273.28333 79.56563 271.17395Q79.56563 269.04895 79.06563 268.36145Q78.58125 267.65833 77.83125 267.65833Q77.1125 267.65833 76.675 268.2677Q76.12813 269.04895 76.12813 271.17395ZM82.05 271.17395Q82.05 269.6427 82.3625 268.72083Q82.675 267.78333 83.28438 267.28333Q83.90938 266.78333 84.84688 266.78333Q85.53438 266.78333 86.05 267.06458Q86.58125 267.34583 86.925 267.87708Q87.26875 268.3927 87.45625 269.1427Q87.64375 269.8927 87.64375 271.17395Q87.64375 272.68958 87.33125 273.61145Q87.03438 274.53333 86.40938 275.04895Q85.8 275.54895 84.84688 275.54895Q83.6125 275.54895 82.89375 274.65833Q82.05 273.59583 82.05 271.17395ZM83.12813 271.17395Q83.12813 273.28333 83.62813 273.98645Q84.12813 274.68958 84.84688 274.68958Q85.58125 274.68958 86.06563 273.98645Q86.56563 273.28333 86.56563 271.17395Q86.56563 269.04895 86.06563 268.36145Q85.58125 267.65833 84.83125 267.65833Q84.1125 267.65833 83.675 268.2677Q83.12813 269.04895 83.12813 271.17395ZM89.05 273.15833L90.15938 273.06458Q90.28438 273.87708 90.72188 274.28333Q91.175 274.68958 91.81563 274.68958Q92.56563 274.68958 93.09688 274.11145Q93.62813 273.53333 93.62813 272.59583Q93.62813 271.68958 93.1125 271.17395Q92.6125 270.6427 91.78438 270.6427Q91.28438 270.6427 90.8625 270.87708Q90.45625 271.11145 90.22188 271.47083L89.2375 271.34583L90.06563 266.93958L94.34688 266.93958L94.34688 267.93958L90.90938 267.93958L90.45625 270.25208Q91.22188 269.7052 92.06563 269.7052Q93.19063 269.7052 93.95625 270.48645Q94.7375 271.2677 94.7375 272.50208Q94.7375 273.65833 94.06563 274.5177Q93.2375 275.54895 91.81563 275.54895Q90.64375 275.54895 89.89375 274.8927Q89.15938 274.23645 89.05 273.15833Z" fill-rule="nonzero"/><path fill="#000000" d="M51.05 210.1323Q51.05 208.60104 51.3625 207.67917Q51.675 206.74167 52.284374 206.24167Q52.909374 205.74167 53.846874 205.74167Q54.534374 205.74167 55.05 206.02292Q55.58125 206.30417 55.925 206.83542Q56.26875 207.35104 56.45625 208.10104Q56.64375 208.85104 56.64375 210.1323Q56.64375 211.64792 56.33125 212.5698Q56.034374 213.49167 55.409374 214.0073Q54.8 214.5073 53.846874 214.5073Q52.6125 214.5073 51.89375 213.61667Q51.05 212.55417 51.05 210.1323ZM52.128124 210.1323Q52.128124 212.24167 52.628124 212.9448Q53.128124 213.64792 53.846874 213.64792Q54.58125 213.64792 55.065624 212.9448Q55.565624 212.24167 55.565624 210.1323Q55.565624 208.0073 55.065624 207.3198Q54.58125 206.61667 53.83125 206.61667Q53.1125 206.61667 52.675 207.22604Q52.128124 208.0073 52.128124 210.1323ZM58.64375 214.36667L58.64375 213.16354L59.846874 213.16354L59.846874 214.36667L58.64375 214.36667ZM61.05 210.1323Q61.05 208.60104 61.3625 207.67917Q61.675 206.74167 62.284374 206.24167Q62.909374 205.74167 63.846874 205.74167Q64.53438 205.74167 65.05 206.02292Q65.58125 206.30417 65.925 206.83542Q66.26875 207.35104 66.45625 208.10104Q66.64375 208.85104 66.64375 210.1323Q66.64375 211.64792 66.33125 212.5698Q66.03438 213.49167 65.40938 214.0073Q64.8 214.5073 63.846874 214.5073Q62.6125 214.5073 61.89375 213.61667Q61.05 212.55417 61.05 210.1323ZM62.128124 210.1323Q62.128124 212.24167 62.628124 212.9448Q63.128124 213.64792 63.846874 213.64792Q64.58125 213.64792 65.06563 212.9448Q65.56563 212.24167 65.56563 210.1323Q65.56563 208.0073 65.06563 207.3198Q64.58125 206.61667 63.83125 206.61667Q63.1125 206.61667 62.675 207.22604Q62.128124 208.0073 62.128124 210.1323ZM68.05 210.1323Q68.05 208.60104 68.3625 207.67917Q68.675 206.74167 69.28438 206.24167Q69.90938 205.74167 70.84688 205.74167Q71.53438 205.74167 72.05 206.02292Q72.58125 206.30417 72.925 206.83542Q73.26875 207.35104 73.45625 208.10104Q73.64375 208.85104 73.64375 210.1323Q73.64375 211.64792 73.33125 212.5698Q73.03438 213.49167 72.40938 214.0073Q71.8 214.5073 70.84688 214.5073Q69.6125 214.5073 68.89375 213.61667Q68.05 212.55417 68.05 210.1323ZM69.12813 210.1323Q69.12813 212.24167 69.62813 212.9448Q70.12813 213.64792 70.84688 213.64792Q71.58125 213.64792 72.06563 212.9448Q72.56563 212.24167 72.56563 210.1323Q72.56563 208.0073 72.06563 207.3198Q71.58125 206.61667 70.83125 206.61667Q70.1125 206.61667 69.675 207.22604Q69.12813 208.0073 69.12813 210.1323ZM75.05 210.1323Q75.05 208.60104 75.3625 207.67917Q75.675 206.74167 76.28438 206.24167Q76.90938 205.74167 77.84688 205.74167Q78.53438 205.74167 79.05 206.02292Q79.58125 206.30417 79.925 206.83542Q80.26875 207.35104 80.45625 208.10104Q80.64375 208.85104 80.64375 210.1323Q80.64375 211.64792 80.33125 212.5698Q80.03438 213.49167 79.40938 214.0073Q78.8 214.5073 77.84688 214.5073Q76.6125 214.5073 75.89375 213.61667Q75.05 212.55417 75.05 210.1323ZM76.12813 210.1323Q76.12813 212.24167 76.62813 212.9448Q77.12813 213.64792 77.84688 213.64792Q78.58125 213.64792 79.06563 212.9448Q79.56563 212.24167 79.56563 210.1323Q79.56563 208.0073 79.06563 207.3198Q78.58125 206.61667 77.83125 206.61667Q77.1125 206.61667 76.675 207.22604Q76.12813 208.0073 76.12813 210.1323ZM86.01875 214.36667L84.97188 214.36667L84.97188 207.64792Q84.58125 208.0073 83.95625 208.3823Q83.34688 208.74167 82.8625 208.91354L82.8625 207.89792Q83.7375 207.47604 84.39375 206.89792Q85.06563 206.30417 85.34688 205.74167L86.01875 205.74167L86.01875 214.36667ZM89.05 210.1323Q89.05 208.60104 89.3625 207.67917Q89.675 206.74167 90.28438 206.24167Q90.90938 205.74167 91.84688 205.74167Q92.53438 205.74167 93.05 206.02292Q93.58125 206.30417 93.925 206.83542Q94.26875 207.35104 94.45625 208.10104Q94.64375 208.85104 94.64375 210.1323Q94.64375 211.64792 94.33125 212.5698Q94.03438 213.49167 93.40938 214.0073Q92.8 214.5073 91.84688 214.5073Q90.6125 214.5073 89.89375 213.61667Q89.05 212.55417 89.05 210.1323ZM90.12813 210.1323Q90.12813 212.24167 90.62813 212.9448Q91.12813 213.64792 91.84688 213.64792Q92.58125 213.64792 93.06563 212.9448Q93.56563 212.24167 93.56563 210.1323Q93.56563 208.0073 93.06563 207.3198Q92.58125 206.61667 91.83125 206.61667Q91.1125 206.61667 90.675 207.22604Q90.12813 208.0073 90.12813 210.1323Z" fill-rule="nonzero"/><path fill="#000000" d="M51.05 149.09062Q51.05 147.55937 51.3625 146.6375Q51.675 145.7 52.284374 145.2Q52.909374 144.7 53.846874 144.7Q54.534374 144.7 55.05 144.98125Q55.58125 145.2625 55.925 145.79375Q56.26875 146.30937 56.45625 147.05937Q56.64375 147.80937 56.64375 149.09062Q56.64375 150.60625 56.33125 151.52812Q56.034374 152.45 55.409374 152.96562Q54.8 153.46562 53.846874 153.46562Q52.6125 153.46562 51.89375 152.575Q51.05 151.5125 51.05 149.09062ZM52.128124 149.09062Q52.128124 151.2 52.628124 151.90312Q53.128124 152.60625 53.846874 152.60625Q54.58125 152.60625 55.065624 151.90312Q55.565624 151.2 55.565624 149.09062Q55.565624 146.96562 55.065624 146.27812Q54.58125 145.575 53.83125 145.575Q53.1125 145.575 52.675 146.18437Q52.128124 146.96562 52.128124 149.09062ZM58.64375 153.325L58.64375 152.12187L59.846874 152.12187L59.846874 153.325L58.64375 153.325ZM61.05 149.09062Q61.05 147.55937 61.3625 146.6375Q61.675 145.7 62.284374 145.2Q62.909374 144.7 63.846874 144.7Q64.53438 144.7 65.05 144.98125Q65.58125 145.2625 65.925 145.79375Q66.26875 146.30937 66.45625 147.05937Q66.64375 147.80937 66.64375 149.09062Q66.64375 150.60625 66.33125 151.52812Q66.03438 152.45 65.40938 152.96562Q64.8 153.46562 63.846874 153.46562Q62.6125 153.46562 61.89375 152.575Q61.05 151.5125 61.05 149.09062ZM62.128124 149.09062Q62.128124 151.2 62.628124 151.90312Q63.128124 152.60625 63.846874 152.60625Q64.58125 152.60625 65.06563 151.90312Q65.56563 151.2 65.56563 149.09062Q65.56563 146.96562 65.06563 146.27812Q64.58125 145.575 63.83125 145.575Q63.1125 145.575 62.675 146.18437Q62.128124 146.96562 62.128124 149.09062ZM68.05 149.09062Q68.05 147.55937 68.3625 146.6375Q68.675 145.7 69.28438 145.2Q69.90938 144.7 70.84688 144.7Q71.53438 144.7 72.05 144.98125Q72.58125 145.2625 72.925 145.79375Q73.26875 146.30937 73.45625 147.05937Q73.64375 147.80937 73.64375 149.09062Q73.64375 150.60625 73.33125 151.52812Q73.03438 152.45 72.40938 152.96562Q71.8 153.46562 70.84688 153.46562Q69.6125 153.46562 68.89375 152.575Q68.05 151.5125 68.05 149.09062ZM69.12813 149.09062Q69.12813 151.2 69.62813 151.90312Q70.12813 152.60625 70.84688 152.60625Q71.58125 152.60625 72.06563 151.90312Q72.56563 151.2 72.56563 149.09062Q72.56563 146.96562 72.06563 146.27812Q71.58125 145.575 70.83125 145.575Q70.1125 145.575 69.675 146.18437Q69.12813 146.96562 69.12813 149.09062ZM75.05 149.09062Q75.05 147.55937 75.3625 146.6375Q75.675 145.7 76.28438 145.2Q76.90938 144.7 77.84688 144.7Q78.53438 144.7 79.05 144.98125Q79.58125 145.2625 79.925 145.79375Q80.26875 146.30937 80.45625 147.05937Q80.64375 147.80937 80.64375 149.09062Q80.64375 150.60625 80.33125 151.52812Q80.03438 152.45 79.40938 152.96562Q78.8 153.46562 77.84688 153.46562Q76.6125 153.46562 75.89375 152.575Q75.05 151.5125 75.05 149.09062ZM76.12813 149.09062Q76.12813 151.2 76.62813 151.90312Q77.12813 152.60625 77.84688 152.60625Q78.58125 152.60625 79.06563 151.90312Q79.56563 151.2 79.56563 149.09062Q79.56563 146.96562 79.06563 146.27812Q78.58125 145.575 77.83125 145.575Q77.1125 145.575 76.675 146.18437Q76.12813 146.96562 76.12813 149.09062ZM86.01875 153.325L84.97188 153.325L84.97188 146.60625Q84.58125 146.96562 83.95625 147.34062Q83.34688 147.7 82.8625 147.87187L82.8625 146.85625Q83.7375 146.43437 84.39375 145.85625Q85.06563 145.2625 85.34688 144.7L86.01875 144.7L86.01875 153.325ZM89.05 151.075L90.15938 150.98125Q90.28438 151.79375 90.72188 152.2Q91.175 152.60625 91.81563 152.60625Q92.56563 152.60625 93.09688 152.02812Q93.62813 151.45 93.62813 150.5125Q93.62813 149.60625 93.1125 149.09062Q92.6125 148.55937 91.78438 148.55937Q91.28438 148.55937 90.8625 148.79375Q90.45625 149.02812 90.22188 149.3875L89.2375 149.2625L90.06563 144.85625L94.34688 144.85625L94.34688 145.85625L90.90938 145.85625L90.45625 148.16875Q91.22188 147.62187 92.06563 147.62187Q93.19063 147.62187 93.95625 148.40312Q94.7375 149.18437 94.7375 150.41875Q94.7375 151.575 94.06563 152.43437Q93.2375 153.46562 91.81563 153.46562Q90.64375 153.46562 89.89375 152.80937Q89.15938 152.15312 89.05 151.075Z" fill-rule="nonzero"/><path fill="#000000" d="M51.05 88.04896Q51.05 86.51771 51.3625 85.59583Q51.675 84.65833 52.284374 84.15833Q52.909374 83.65833 53.846874 83.65833Q54.534374 83.65833 55.05 83.93958Q55.58125 84.22083 55.925 84.75208Q56.26875 85.26771 56.45625 86.01771Q56.64375 86.76771 56.64375 88.04896Q56.64375 89.56458 56.33125 90.48646Q56.034374 91.40833 55.409374 91.92396Q54.8 92.42396 53.846874 92.42396Q52.6125 92.42396 51.89375 91.53333Q51.05 90.47083 51.05 88.04896ZM52.128124 88.04896Q52.128124 90.15833 52.628124 90.86146Q53.128124 91.56458 53.846874 91.56458Q54.58125 91.56458 55.065624 90.86146Q55.565624 90.15833 55.565624 88.04896Q55.565624 85.92396 55.065624 85.23646Q54.58125 84.53333 53.83125 84.53333Q53.1125 84.53333 52.675 85.14271Q52.128124 85.92396 52.128124 88.04896ZM58.64375 92.28333L58.64375 91.08021L59.846874 91.08021L59.846874 92.28333L58.64375 92.28333ZM61.05 88.04896Q61.05 86.51771 61.3625 85.59583Q61.675 84.65833 62.284374 84.15833Q62.909374 83.65833 63.846874 83.65833Q64.53438 83.65833 65.05 83.93958Q65.58125 84.22083 65.925 84.75208Q66.26875 85.26771 66.45625 86.01771Q66.64375 86.76771 66.64375 88.04896Q66.64375 89.56458 66.33125 90.48646Q66.03438 91.40833 65.40938 91.92396Q64.8 92.42396 63.846874 92.42396Q62.6125 92.42396 61.89375 91.53333Q61.05 90.47083 61.05 88.04896ZM62.128124 88.04896Q62.128124 90.15833 62.628124 90.86146Q63.128124 91.56458 63.846874 91.56458Q64.58125 91.56458 65.06563 90.86146Q65.56563 90.15833 65.56563 88.04896Q65.56563 85.92396 65.06563 85.23646Q64.58125 84.53333 63.83125 84.53333Q63.1125 84.53333 62.675 85.14271Q62.128124 85.92396 62.128124 88.04896ZM68.05 88.04896Q68.05 86.51771 68.3625 85.59583Q68.675 84.65833 69.28438 84.15833Q69.90938 83.65833 70.84688 83.65833Q71.53438 83.65833 72.05 83.93958Q72.58125 84.22083 72.925 84.75208Q73.26875 85.26771 73.45625 86.01771Q73.64375 86.76771 73.64375 88.04896Q73.64375 89.56458 73.33125 90.48646Q73.03438 91.40833 72.40938 91.92396Q71.8 92.42396 70.84688 92.42396Q69.6125 92.42396 68.89375 91.53333Q68.05 90.47083 68.05 88.04896ZM69.12813 88.04896Q69.12813 90.15833 69.62813 90.86146Q70.12813 91.56458 70.84688 91.56458Q71.58125 91.56458 72.06563 90.86146Q72.56563 90.15833 72.56563 88.04896Q72.56563 85.92396 72.06563 85.23646Q71.58125 84.53333 70.83125 84.53333Q70.1125 84.53333 69.675 85.14271Q69.12813 85.92396 69.12813 88.04896ZM75.05 88.04896Q75.05 86.51771 75.3625 85.59583Q75.675 84.65833 76.28438 84.15833Q76.90938 83.65833 77.84688 83.65833Q78.53438 83.65833 79.05 83.93958Q79.58125 84.22083 79.925 84.75208Q80.26875 85.26771 80.45625 86.01771Q80.64375 86.76771 80.64375 88.04896Q80.64375 89.56458 80.33125 90.48646Q80.03438 91.40833 79.40938 91.92396Q78.8 92.42396 77.84688 92.42396Q76.6125 92.42396 75.89375 91.53333Q75.05 90.47083 75.05 88.04896ZM76.12813 88.04896Q76.12813 90.15833 76.62813 90.86146Q77.12813 91.56458 77.84688 91.56458Q78.58125 91.56458 79.06563 90.86146Q79.56563 90.15833 79.56563 88.04896Q79.56563 85.92396 79.06563 85.23646Q78.58125 84.53333 77.83125 84.53333Q77.1125 84.53333 76.675 85.14271Q76.12813 85.92396 76.12813 88.04896ZM87.59688 91.26771L87.59688 92.28333L81.90938 92.28333Q81.90938 91.90833 82.03438 91.54896Q82.25313 90.97083 82.72188 90.40833Q83.20625 89.84583 84.1125 89.11146Q85.51875 87.95521 86.00313 87.28333Q86.50313 86.61146 86.50313 86.01771Q86.50313 85.39271 86.05 84.97083Q85.59688 84.53333 84.87813 84.53333Q84.1125 84.53333 83.65938 84.98646Q83.20625 85.43958 83.19063 86.25208L82.1125 86.14271Q82.22188 84.92396 82.94063 84.29896Q83.675 83.65833 84.90938 83.65833Q86.14375 83.65833 86.8625 84.34583Q87.58125 85.03333 87.58125 86.04896Q87.58125 86.56458 87.3625 87.06458Q87.15938 87.54896 86.65938 88.11146Q86.175 88.65833 85.05 89.61146Q84.09688 90.40833 83.81563 90.70521Q83.55 90.98646 83.37813 91.26771L87.59688 91.26771ZM89.05 88.04896Q89.05 86.51771 89.3625 85.59583Q89.675 84.65833 90.28438 84.15833Q90.90938 83.65833 91.84688 83.65833Q92.53438 83.65833 93.05 83.93958Q93.58125 84.22083 93.925 84.75208Q94.26875 85.26771 94.45625 86.01771Q94.64375 86.76771 94.64375 88.04896Q94.64375 89.56458 94.33125 90.48646Q94.03438 91.40833 93.40938 91.92396Q92.8 92.42396 91.84688 92.42396Q90.6125 92.42396 89.89375 91.53333Q89.05 90.47083 89.05 88.04896ZM90.12813 88.04896Q90.12813 90.15833 90.62813 90.86146Q91.12813 91.56458 91.84688 91.56458Q92.58125 91.56458 93.06563 90.86146Q93.56563 90.15833 93.56563 88.04896Q93.56563 85.92396 93.06563 85.23646Q92.58125 84.53333 91.83125 84.53333Q91.1125 84.53333 90.675 85.14271Q90.12813 85.92396 90.12813 88.04896Z" fill-rule="nonzero"/><path fill="#000000" d="M156.06412 346.6844L157.12662 346.59064Q157.20474 347.2469 157.486 347.65314Q157.76724 348.0594 158.34537 348.325Q158.93912 348.575 159.6735 348.575Q160.31412 348.575 160.81412 348.3875Q161.31412 348.1844 161.5485 347.85626Q161.7985 347.5125 161.7985 347.1219Q161.7985 346.71564 161.56412 346.41876Q161.32974 346.10626 160.7985 345.90314Q160.43912 345.7625 159.25162 345.48126Q158.07974 345.2 157.611 344.95Q156.986 344.6219 156.68912 344.15314Q156.39224 343.66876 156.39224 343.075Q156.39224 342.4344 156.75162 341.8719Q157.12662 341.29376 157.82974 341.0125Q158.5485 340.71564 159.40787 340.71564Q160.361 340.71564 161.09537 341.02814Q161.82974 341.325 162.22037 341.9344Q162.611 342.52814 162.64224 343.27814L161.5485 343.35626Q161.45474 342.54376 160.93912 342.1375Q160.43912 341.71564 159.45474 341.71564Q158.4235 341.71564 157.95474 342.09064Q157.486 342.46564 157.486 342.9969Q157.486 343.46564 157.81412 343.7625Q158.14224 344.0594 159.51724 344.3719Q160.90787 344.6844 161.4235 344.91876Q162.1735 345.27814 162.53287 345.8094Q162.89224 346.325 162.89224 347.02814Q162.89224 347.71564 162.50162 348.325Q162.111 348.91876 161.37662 349.2625Q160.64224 349.59064 159.72037 349.59064Q158.5485 349.59064 157.75162 349.2625Q156.97037 348.91876 156.51724 348.23126Q156.07974 347.54376 156.06412 346.6844ZM168.37662 347.16876L169.40787 347.3094Q169.236 348.3719 168.53287 348.98126Q167.82974 349.59064 166.81412 349.59064Q165.53287 349.59064 164.75162 348.7625Q163.986 347.91876 163.986 346.35626Q163.986 345.35626 164.31412 344.60626Q164.65787 343.84064 165.32974 343.46564Q166.01724 343.09064 166.82974 343.09064Q167.82974 343.09064 168.47037 343.60626Q169.12662 344.10626 169.31412 345.0594L168.28287 345.21564Q168.14224 344.59064 167.76724 344.27814Q167.39224 343.95 166.861 343.95Q166.06412 343.95 165.56412 344.52814Q165.06412 345.09064 165.06412 346.325Q165.06412 347.59064 165.5485 348.15314Q166.03287 348.71564 166.7985 348.71564Q167.4235 348.71564 167.82974 348.34064Q168.25162 347.96564 168.37662 347.16876ZM174.37662 348.6844Q173.78287 349.1844 173.236 349.3875Q172.70474 349.59064 172.07974 349.59064Q171.0485 349.59064 170.50162 349.09064Q169.95474 348.59064 169.95474 347.8094Q169.95474 347.35626 170.15787 346.98126Q170.361 346.59064 170.70474 346.3719Q171.0485 346.1375 171.47037 346.02814Q171.76724 345.9344 172.40787 345.85626Q173.6735 345.71564 174.28287 345.4969Q174.28287 345.27814 174.28287 345.23126Q174.28287 344.575 173.986 344.3094Q173.57974 343.96564 172.78287 343.96564Q172.0485 343.96564 171.68912 344.23126Q171.32974 344.48126 171.15787 345.1375L170.12662 344.9969Q170.26724 344.34064 170.59537 343.9344Q170.9235 343.52814 171.53287 343.3094Q172.14224 343.09064 172.93912 343.09064Q173.736 343.09064 174.236 343.27814Q174.736 343.46564 174.97037 343.7469Q175.20474 344.02814 175.2985 344.46564Q175.34537 344.73126 175.34537 345.4344L175.34537 346.84064Q175.34537 348.3094 175.40787 348.7Q175.486 349.09064 175.68912 349.45L174.57974 349.45Q174.4235 349.1219 174.37662 348.6844ZM174.28287 346.325Q173.70474 346.5594 172.56412 346.73126Q171.90787 346.825 171.64224 346.95Q171.37662 347.0594 171.22037 347.27814Q171.07974 347.4969 171.07974 347.77814Q171.07974 348.2 171.39224 348.48126Q171.72037 348.7625 172.32974 348.7625Q172.93912 348.7625 173.40787 348.4969Q173.89224 348.23126 174.111 347.7625Q174.28287 347.40314 174.28287 346.71564L174.28287 346.325ZM177.28287 349.45L177.28287 340.85626L178.34537 340.85626L178.34537 349.45L177.28287 349.45ZM184.56412 347.45L185.65787 347.575Q185.40787 348.52814 184.70474 349.0594Q184.00162 349.59064 182.9235 349.59064Q181.56412 349.59064 180.75162 348.7469Q179.95474 347.90314 179.95474 346.3875Q179.95474 344.825 180.76724 343.96564Q181.57974 343.09064 182.861 343.09064Q184.111 343.09064 184.89224 343.9344Q185.68912 344.77814 185.68912 346.325Q185.68912 346.41876 185.68912 346.60626L181.0485 346.60626Q181.111 347.6375 181.62662 348.1844Q182.14224 348.71564 182.9235 348.71564Q183.50162 348.71564 183.90787 348.41876Q184.32974 348.10626 184.56412 347.45ZM181.111 345.7469L184.57974 345.7469Q184.51724 344.95 184.18912 344.5594Q183.6735 343.95 182.87662 343.95Q182.14224 343.95 181.64224 344.4344Q181.15787 344.91876 181.111 345.7469ZM193.39224 349.45L193.39224 347.3875L189.6735 347.3875L189.6735 346.41876L193.59537 340.85626L194.45474 340.85626L194.45474 346.41876L195.611 346.41876L195.611 347.3875L194.45474 347.3875L194.45474 349.45L193.39224 349.45ZM193.39224 346.41876L193.39224 342.5594L190.70474 346.41876L193.39224 346.41876Z" fill-rule="nonzero"/><path fill="#000000" d="M267.26096 349.45L267.26096 340.85626L268.4172 340.85626L272.93283 347.60626L272.93283 340.85626L274.02658 340.85626L274.02658 349.45L272.8547 349.45L268.33908 342.7L268.33908 349.45L267.26096 349.45ZM275.74533 346.34064Q275.74533 344.60626 276.69846 343.77814Q277.49533 343.09064 278.65158 343.09064Q279.93283 343.09064 280.74533 343.9344Q281.57346 344.7625 281.57346 346.2469Q281.57346 347.45 281.21408 348.1375Q280.8547 348.825 280.15158 349.21564Q279.46408 349.59064 278.65158 349.59064Q277.3547 349.59064 276.5422 348.7625Q275.74533 347.91876 275.74533 346.34064ZM276.82346 346.34064Q276.82346 347.52814 277.33908 348.1219Q277.87033 348.71564 278.65158 348.71564Q279.44846 348.71564 279.96408 348.1219Q280.4797 347.52814 280.4797 346.3094Q280.4797 345.15314 279.94846 344.5594Q279.43283 343.96564 278.65158 343.96564Q277.87033 343.96564 277.33908 344.5594Q276.82346 345.1375 276.82346 346.34064ZM283.12033 349.45L283.12033 343.23126L284.07346 343.23126L284.07346 344.16876Q284.43283 343.5125 284.7297 343.3094Q285.0422 343.09064 285.4172 343.09064Q285.94846 343.09064 286.49533 343.41876L286.13596 344.40314Q285.74533 344.16876 285.37033 344.16876Q285.01096 344.16876 284.7297 344.3875Q284.46408 344.59064 284.3547 344.96564Q284.1672 345.52814 284.1672 346.1844L284.1672 349.45L283.12033 349.45ZM287.13596 349.45L287.13596 343.23126L288.07346 343.23126L288.07346 344.10626Q288.37033 343.6375 288.8547 343.3719Q289.33908 343.09064 289.96408 343.09064Q290.65158 343.09064 291.08908 343.3719Q291.5422 343.65314 291.71408 344.16876Q292.46408 343.09064 293.63596 343.09064Q294.57346 343.09064 295.05783 343.60626Q295.55783 344.10626 295.55783 345.1844L295.55783 349.45L294.51096 349.45L294.51096 345.52814Q294.51096 344.90314 294.40158 344.6219Q294.30783 344.34064 294.0422 344.16876Q293.77658 343.9969 293.40158 343.9969Q292.74533 343.9969 292.30783 344.4344Q291.88596 344.8719 291.88596 345.84064L291.88596 349.45L290.82346 349.45L290.82346 345.40314Q290.82346 344.7 290.55783 344.35626Q290.30783 343.9969 289.7297 343.9969Q289.27658 343.9969 288.90158 344.23126Q288.52658 344.46564 288.3547 344.91876Q288.18283 345.3719 288.18283 346.21564L288.18283 349.45L287.13596 349.45ZM303.21408 349.45L303.21408 347.3875L299.49533 347.3875L299.49533 346.41876L303.4172 340.85626L304.27658 340.85626L304.27658 346.41876L305.43283 346.41876L305.43283 347.3875L304.27658 347.3875L304.27658 349.45L303.21408 349.45ZM303.21408 346.41876L303.21408 342.5594L300.52658 346.41876L303.21408 346.41876Z" fill-rule="nonzero"/><path fill="#000000" d="M380.6453 349.45L383.94217 340.85626L385.16092 340.85626L388.67654 349.45L387.3953 349.45L386.37967 346.84064L382.80154 346.84064L381.84842 349.45L380.6453 349.45ZM383.12967 345.91876L386.03592 345.91876L385.1453 343.54376Q384.72342 342.46564 384.53592 341.7625Q384.36404 342.59064 384.06717 343.40314L383.12967 345.91876ZM393.48904 349.45L393.48904 348.66876Q392.8953 349.59064 391.75467 349.59064Q391.00467 349.59064 390.37967 349.1844Q389.75467 348.7625 389.41092 348.02814Q389.06717 347.29376 389.06717 346.34064Q389.06717 345.41876 389.37967 344.65314Q389.69217 343.8875 390.31717 343.4969Q390.94217 343.09064 391.7078 343.09064Q392.2703 343.09064 392.7078 343.325Q393.1453 343.5594 393.42654 343.9344L393.42654 340.85626L394.47342 340.85626L394.47342 349.45L393.48904 349.45ZM390.16092 346.34064Q390.16092 347.54376 390.66092 348.1375Q391.16092 348.71564 391.84842 348.71564Q392.53592 348.71564 393.0203 348.15314Q393.50467 347.59064 393.50467 346.4344Q393.50467 345.15314 393.00467 344.5594Q392.5203 343.96564 391.80154 343.96564Q391.09842 343.96564 390.62967 344.54376Q390.16092 345.10626 390.16092 346.34064ZM400.48904 349.45L400.48904 348.66876Q399.8953 349.59064 398.75467 349.59064Q398.00467 349.59064 397.37967 349.1844Q396.75467 348.7625 396.41092 348.02814Q396.06717 347.29376 396.06717 346.34064Q396.06717 345.41876 396.37967 344.65314Q396.69217 343.8875 397.31717 343.4969Q397.94217 343.09064 398.7078 343.09064Q399.2703 343.09064 399.7078 343.325Q400.1453 343.5594 400.42654 343.9344L400.42654 340.85626L401.47342 340.85626L401.47342 349.45L400.48904 349.45ZM397.16092 346.34064Q397.16092 347.54376 397.66092 348.1375Q398.16092 348.71564 398.84842 348.71564Q399.53592 348.71564 400.0203 348.15314Q400.50467 347.59064 400.50467 346.4344Q400.50467 345.15314 400.00467 344.5594Q399.5203 343.96564 398.80154 343.96564Q398.09842 343.96564 397.62967 344.54376Q397.16092 345.10626 397.16092 346.34064ZM409.53592 349.45L409.53592 347.3875L405.81717 347.3875L405.81717 346.41876L409.73904 340.85626L410.59842 340.85626L410.59842 346.41876L411.75467 346.41876L411.75467 347.3875L410.59842 347.3875L410.59842 349.45L409.53592 349.45ZM409.53592 346.41876L409.53592 342.5594L406.84842 346.41876L409.53592 346.41876Z" fill-rule="nonzero"/><path fill="#000000" d="M469.46713 349.45L472.764 340.85626L473.98276 340.85626L477.49838 349.45L476.21713 349.45L475.2015 346.84064L471.62338 346.84064L470.67026 349.45L469.46713 349.45ZM471.9515 345.91876L474.85776 345.91876L473.96713 343.54376Q473.54526 342.46564 473.35776 341.7625Q473.18588 342.59064 472.889 343.40314L471.9515 345.91876ZM482.31088 349.45L482.31088 348.66876Q481.71713 349.59064 480.5765 349.59064Q479.8265 349.59064 479.2015 349.1844Q478.5765 348.7625 478.23276 348.02814Q477.889 347.29376 477.889 346.34064Q477.889 345.41876 478.2015 344.65314Q478.514 343.8875 479.139 343.4969Q479.764 343.09064 480.52963 343.09064Q481.09213 343.09064 481.52963 343.325Q481.96713 343.5594 482.24838 343.9344L482.24838 340.85626L483.29526 340.85626L483.29526 349.45L482.31088 349.45ZM478.98276 346.34064Q478.98276 347.54376 479.48276 348.1375Q479.98276 348.71564 480.67026 348.71564Q481.35776 348.71564 481.84213 348.15314Q482.3265 347.59064 482.3265 346.4344Q482.3265 345.15314 481.8265 344.5594Q481.34213 343.96564 480.62338 343.96564Q479.92026 343.96564 479.4515 344.54376Q478.98276 345.10626 478.98276 346.34064ZM489.31088 349.45L489.31088 348.66876Q488.71713 349.59064 487.5765 349.59064Q486.8265 349.59064 486.2015 349.1844Q485.5765 348.7625 485.23276 348.02814Q484.889 347.29376 484.889 346.34064Q484.889 345.41876 485.2015 344.65314Q485.514 343.8875 486.139 343.4969Q486.764 343.09064 487.52963 343.09064Q488.09213 343.09064 488.52963 343.325Q488.96713 343.5594 489.24838 343.9344L489.24838 340.85626L490.29526 340.85626L490.29526 349.45L489.31088 349.45ZM485.98276 346.34064Q485.98276 347.54376 486.48276 348.1375Q486.98276 348.71564 487.67026 348.71564Q488.35776 348.71564 488.84213 348.15314Q489.3265 347.59064 489.3265 346.4344Q489.3265 345.15314 488.8265 344.5594Q488.34213 343.96564 487.62338 343.96564Q486.92026 343.96564 486.4515 344.54376Q485.98276 345.10626 485.98276 346.34064ZM500.52963 348.4344L500.52963 349.45L494.84213 349.45Q494.84213 349.075 494.96713 348.71564Q495.18588 348.1375 495.65463 347.575Q496.139 347.0125 497.04526 346.27814Q498.4515 345.1219 498.93588 344.45Q499.43588 343.77814 499.43588 343.1844Q499.43588 342.5594 498.98276 342.1375Q498.52963 341.7 497.81088 341.7Q497.04526 341.7 496.59213 342.15314Q496.139 342.60626 496.12338 343.41876L495.04526 343.3094Q495.15463 342.09064 495.87338 341.46564Q496.60776 340.825 497.84213 340.825Q499.0765 340.825 499.79526 341.5125Q500.514 342.2 500.514 343.21564Q500.514 343.73126 500.29526 344.23126Q500.09213 344.71564 499.59213 345.27814Q499.10776 345.825 497.98276 346.77814Q497.02963 347.575 496.74838 347.8719Q496.48276 348.15314 496.31088 348.4344L500.52963 348.4344ZM505.40463 349.45L505.40463 340.85626L508.37338 340.85626Q509.37338 340.85626 509.90463 340.98126Q510.639 341.15314 511.15463 341.59064Q511.84213 342.16876 512.1703 343.075Q512.51404 343.96564 512.51404 345.10626Q512.51404 346.09064 512.27966 346.84064Q512.0609 347.59064 511.7015 348.09064Q511.34213 348.59064 510.90463 348.8719Q510.48276 349.15314 509.889 349.3094Q509.29526 349.45 508.514 349.45L505.40463 349.45ZM506.54526 348.4344L508.37338 348.4344Q509.23276 348.4344 509.71713 348.27814Q510.2015 348.1219 510.48276 347.825Q510.889 347.4344 511.10776 346.7469Q511.34213 346.0594 511.34213 345.09064Q511.34213 343.7469 510.889 343.02814Q510.4515 342.29376 509.8265 342.04376Q509.35776 341.8719 508.35776 341.8719L506.54526 341.8719L506.54526 348.4344ZM513.88904 346.34064Q513.88904 344.60626 514.84216 343.77814Q515.63904 343.09064 516.7953 343.09064Q518.07654 343.09064 518.88904 343.9344Q519.71716 344.7625 519.71716 346.2469Q519.71716 347.45 519.3578 348.1375Q518.9984 348.825 518.2953 349.21564Q517.6078 349.59064 516.7953 349.59064Q515.4984 349.59064 514.6859 348.7625Q513.88904 347.91876 513.88904 346.34064ZM514.96716 346.34064Q514.96716 347.52814 515.4828 348.1219Q516.01404 348.71564 516.7953 348.71564Q517.59216 348.71564 518.1078 348.1219Q518.6234 347.52814 518.6234 346.3094Q518.6234 345.15314 518.09216 344.5594Q517.57654 343.96564 516.7953 343.96564Q516.01404 343.96564 515.4828 344.5594Q514.96716 345.1375 514.96716 346.34064ZM525.3578 349.45L525.3578 348.52814Q524.6234 349.59064 523.3734 349.59064Q522.82654 349.59064 522.34216 349.3875Q521.8734 349.16876 521.63904 348.85626Q521.40466 348.52814 521.3109 348.0594Q521.2484 347.7625 521.2484 347.075L521.2484 343.23126L522.3109 343.23126L522.3109 346.6844Q522.3109 347.4969 522.3734 347.79376Q522.46716 348.2 522.77966 348.45Q523.1078 348.6844 523.59216 348.6844Q524.0609 348.6844 524.46716 348.45Q524.88904 348.2 525.0609 347.77814Q525.2484 347.35626 525.2484 346.5594L525.2484 343.23126L526.2953 343.23126L526.2953 349.45L525.3578 349.45ZM529.2484 349.45L528.26404 349.45L528.26404 340.85626L529.32654 340.85626L529.32654 343.91876Q529.9984 343.09064 531.02966 343.09064Q531.6078 343.09064 532.1078 343.325Q532.6234 343.54376 532.95154 343.96564Q533.2953 344.3875 533.4828 344.98126Q533.6703 345.575 533.6703 346.2469Q533.6703 347.84064 532.8734 348.71564Q532.07654 349.59064 530.9828 349.59064Q529.8734 349.59064 529.2484 348.66876L529.2484 349.45ZM529.2328 346.29376Q529.2328 347.40314 529.5453 347.90314Q530.0453 348.71564 530.88904 348.71564Q531.57654 348.71564 532.07654 348.1219Q532.59216 347.52814 532.59216 346.325Q532.59216 345.10626 532.1078 344.52814Q531.6234 343.95 530.9359 343.95Q530.2484 343.95 529.7328 344.5594Q529.2328 345.15314 529.2328 346.29376ZM535.2484 349.45L535.2484 340.85626L536.3109 340.85626L536.3109 349.45L535.2484 349.45ZM542.52966 347.45L543.6234 347.575Q543.3734 348.52814 542.6703 349.0594Q541.96716 349.59064 540.88904 349.59064Q539.52966 349.59064 538.71716 348.7469Q537.9203 347.90314 537.9203 346.3875Q537.9203 344.825 538.7328 343.96564Q539.5453 343.09064 540.82654 343.09064Q542.07654 343.09064 542.8578 343.9344Q543.65466 344.77814 543.65466 346.325Q543.65466 346.41876 543.65466 346.60626L539.01404 346.60626Q539.07654 347.6375 539.59216 348.1844Q540.1078 348.71564 540.88904 348.71564Q541.46716 348.71564 541.8734 348.41876Q542.2953 348.10626 542.52966 347.45ZM539.07654 345.7469L542.5453 345.7469Q542.4828 344.95 542.15466 344.5594Q541.63904 343.95 540.84216 343.95Q540.1078 343.95 539.6078 344.4344Q539.1234 344.91876 539.07654 345.7469Z" fill-rule="nonzero"/><path fill="#4285f4" d="M107.5 56.916668C107.5 56.364384 107.947716 55.916668 108.5 55.916668L118.5 55.916668C119.052284 55.916668 119.5 56.364384 119.5 56.916668L119.5 66.916664C119.5 67.46895 119.052284 67.916664 118.5 67.916664L108.5 67.916664C107.947716 67.916664 107.5 67.46895 107.5 66.916664Z" fill-rule="nonzero"/><path fill="#1a1a1a" d="M128.39062 65.916664L128.39062 57.322914L130.10938 57.322914L132.14062 63.40104Q132.42188 64.260414 132.54688 64.68229Q132.6875 64.21354 133.0 63.30729L135.0625 57.322914L136.59375 57.322914L136.59375 65.916664L135.5 65.916664L135.5 58.729164L133.0 65.916664L131.96875 65.916664L129.48438 58.604164L129.48438 65.916664L128.39062 65.916664ZM138.25 68.30729L138.125 67.322914Q138.46875 67.416664 138.73438 67.416664Q139.07812 67.416664 139.28125 67.291664Q139.5 67.18229 139.64062 66.979164Q139.73438 66.80729 139.96875 66.18229Q139.98438 66.104164 140.0625 65.93229L137.6875 59.697914L138.82812 59.697914L140.125 63.291664Q140.375 63.979164 140.57812 64.74479Q140.76562 64.010414 141.01562 63.322914L142.34375 59.697914L143.39062 59.697914L141.03125 66.02604Q140.64062 67.041664 140.4375 67.43229Q140.15625 67.96354 139.78125 68.197914Q139.42188 68.447914 138.92188 68.447914Q138.625 68.447914 138.25 68.30729ZM146.875 65.916664L143.54688 57.322914L144.78125 57.322914L147.01562 63.572914Q147.28125 64.322914 147.46875 64.979164Q147.67188 64.27604 147.9375 63.572914L150.25 57.322914L151.40625 57.322914L148.04688 65.916664L146.875 65.916664ZM156.54688 63.916664L157.64062 64.041664Q157.39062 64.99479 156.6875 65.52604Q155.98438 66.05729 154.90625 66.05729Q153.54688 66.05729 152.73438 65.21354Q151.9375 64.36979 151.9375 62.854164Q151.9375 61.291664 152.75 60.43229Q153.5625 59.55729 154.84375 59.55729Q156.09375 59.55729 156.875 60.40104Q157.67188 61.24479 157.67188 62.791664Q157.67188 62.885414 157.67188 63.072914L153.03125 63.072914Q153.09375 64.104164 153.60938 64.65104Q154.125 65.18229 154.90625 65.18229Q155.48438 65.18229 155.89062 64.885414Q156.3125 64.572914 156.54688 63.916664ZM153.09375 62.21354L156.5625 62.21354Q156.5 61.416664 156.17188 61.02604Q155.65625 60.416664 154.85938 60.416664Q154.125 60.416664 153.625 60.90104Q153.14062 61.385414 153.09375 62.21354ZM163.35938 63.635414L164.39062 63.77604Q164.21875 64.83854 163.51562 65.447914Q162.8125 66.05729 161.79688 66.05729Q160.51562 66.05729 159.73438 65.229164Q158.96875 64.385414 158.96875 62.822914Q158.96875 61.822914 159.29688 61.072914Q159.64062 60.30729 160.3125 59.93229Q161.0 59.55729 161.8125 59.55729Q162.8125 59.55729 163.45312 60.072914Q164.10938 60.572914 164.29688 61.52604L163.26562 61.68229Q163.125 61.05729 162.75 60.74479Q162.375 60.416664 161.84375 60.416664Q161.04688 60.416664 160.54688 60.99479Q160.04688 61.55729 160.04688 62.791664Q160.04688 64.05729 160.53125 64.61979Q161.01562 65.18229 161.78125 65.18229Q162.40625 65.18229 162.8125 64.80729Q163.23438 64.43229 163.35938 63.635414ZM167.59375 64.979164L167.75 65.90104Q167.29688 65.99479 166.95312 65.99479Q166.375 65.99479 166.0625 65.822914Q165.75 65.635414 165.60938 65.33854Q165.48438 65.041664 165.48438 64.08854L165.48438 60.510414L164.71875 60.510414L164.71875 59.697914L165.48438 59.697914L165.48438 58.15104L166.53125 57.52604L166.53125 59.697914L167.59375 59.697914L167.59375 60.510414L166.53125 60.510414L166.53125 64.15104Q166.53125 64.604164 166.57812 64.729164Q166.64062 64.854164 166.76562 64.93229Q166.89062 65.010414 167.125 65.010414Q167.3125 65.010414 167.59375 64.979164ZM167.90625 62.80729Q167.90625 61.072914 168.85938 60.24479Q169.65625 59.55729 170.8125 59.55729Q172.09375 59.55729 172.90625 60.40104Q173.73438 61.229164 173.73438 62.71354Q173.73438 63.916664 173.375 64.604164Q173.01562 65.291664 172.3125 65.68229Q171.625 66.05729 170.8125 66.05729Q169.51562 66.05729 168.70312 65.229164Q167.90625 64.385414 167.90625 62.80729ZM168.98438 62.80729Q168.98438 63.99479 169.5 64.58854Q170.03125 65.18229 170.8125 65.18229Q171.60938 65.18229 172.125 64.58854Q172.64062 63.99479 172.64062 62.77604Q172.64062 61.61979 172.10938 61.02604Q171.59375 60.43229 170.8125 60.43229Q170.03125 60.43229 169.5 61.02604Q168.98438 61.604164 168.98438 62.80729ZM175.28125 65.916664L175.28125 59.697914L176.23438 59.697914L176.23438 60.635414Q176.59375 59.979164 176.89062 59.77604Q177.20312 59.55729 177.57812 59.55729Q178.10938 59.55729 178.65625 59.885414L178.29688 60.86979Q177.90625 60.635414 177.53125 60.635414Q177.17188 60.635414 176.89062 60.854164Q176.625 61.05729 176.51562 61.43229Q176.32812 61.99479 176.32812 62.65104L176.32812 65.916664L175.28125 65.916664Z" fill-rule="nonzero"/><path fill="#ea4335" d="M194.5 56.916668C194.5 56.364384 194.94771 55.916668 195.5 55.916668L205.5 55.916668C206.05229 55.916668 206.5 56.364384 206.5 56.916668L206.5 66.916664C206.5 67.46895 206.05229 67.916664 205.5 67.916664L195.5 67.916664C194.94771 67.916664 194.5 67.46895 194.5 66.916664Z" fill-rule="nonzero"/><path fill="#1a1a1a" d="M217.60938 65.916664L217.60938 58.33854L214.78125 58.33854L214.78125 57.322914L221.59375 57.322914L221.59375 58.33854L218.75 58.33854L218.75 65.916664L217.60938 65.916664ZM222.375 65.916664L222.375 57.322914L223.51562 57.322914L223.51562 61.58854L227.78125 57.322914L229.32812 57.322914L225.71875 60.80729L229.48438 65.916664L227.98438 65.916664L224.92188 61.572914L223.51562 62.93229L223.51562 65.916664L222.375 65.916664ZM232.875 65.916664L229.54688 57.322914L230.78125 57.322914L233.01562 63.572914Q233.28125 64.322914 233.46875 64.979164Q233.67188 64.27604 233.9375 63.572914L236.25 57.322914L237.40625 57.322914L234.04688 65.916664L232.875 65.916664ZM242.54688 63.916664L243.64062 64.041664Q243.39062 64.99479 242.6875 65.52604Q241.98438 66.05729 240.90625 66.05729Q239.54688 66.05729 238.73438 65.21354Q237.9375 64.36979 237.9375 62.854164Q237.9375 61.291664 238.75 60.43229Q239.5625 59.55729 240.84375 59.55729Q242.09375 59.55729 242.875 60.40104Q243.67188 61.24479 243.67188 62.791664Q243.67188 62.885414 243.67188 63.072914L239.03125 63.072914Q239.09375 64.104164 239.60938 64.65104Q240.125 65.18229 240.90625 65.18229Q241.48438 65.18229 241.89062 64.885414Q242.3125 64.572914 242.54688 63.916664ZM239.09375 62.21354L242.5625 62.21354Q242.5 61.416664 242.17188 61.02604Q241.65625 60.416664 240.85938 60.416664Q240.125 60.416664 239.625 60.90104Q239.14062 61.385414 239.09375 62.21354ZM249.35938 63.635414L250.39062 63.77604Q250.21875 64.83854 249.51562 65.447914Q248.8125 66.05729 247.79688 66.05729Q246.51562 66.05729 245.73438 65.229164Q244.96875 64.385414 244.96875 62.822914Q244.96875 61.822914 245.29688 61.072914Q245.64062 60.30729 246.3125 59.93229Q247.0 59.55729 247.8125 59.55729Q248.8125 59.55729 249.45312 60.072914Q250.10938 60.572914 250.29688 61.52604L249.26562 61.68229Q249.125 61.05729 248.75 60.74479Q248.375 60.416664 247.84375 60.416664Q247.04688 60.416664 246.54688 60.99479Q246.04688 61.55729 246.04688 62.791664Q246.04688 64.05729 246.53125 64.61979Q247.01562 65.18229 247.78125 65.18229Q248.40625 65.18229 248.8125 64.80729Q249.23438 64.43229 249.35938 63.635414ZM253.59375 64.979164L253.75 65.90104Q253.29688 65.99479 252.95312 65.99479Q252.375 65.99479 252.0625 65.822914Q251.75 65.635414 251.60938 65.33854Q251.48438 65.041664 251.48438 64.08854L251.48438 60.510414L250.71875 60.510414L250.71875 59.697914L251.48438 59.697914L251.48438 58.15104L252.53125 57.52604L252.53125 59.697914L253.59375 59.697914L253.59375 60.510414L252.53125 60.510414L252.53125 64.15104Q252.53125 64.604164 252.57812 64.729164Q252.64062 64.854164 252.76562 64.93229Q252.89062 65.010414 253.125 65.010414Q253.3125 65.010414 253.59375 64.979164ZM253.90625 62.80729Q253.90625 61.072914 254.85938 60.24479Q255.65625 59.55729 256.8125 59.55729Q258.09375 59.55729 258.90625 60.40104Q259.73438 61.229164 259.73438 62.71354Q259.73438 63.916664 259.375 64.604164Q259.01562 65.291664 258.3125 65.68229Q257.625 66.05729 256.8125 66.05729Q255.51562 66.05729 254.70312 65.229164Q253.90625 64.385414 253.90625 62.80729ZM254.98438 62.80729Q254.98438 63.99479 255.5 64.58854Q256.03125 65.18229 256.8125 65.18229Q257.60938 65.18229 258.125 64.58854Q258.64062 63.99479 258.64062 62.77604Q258.64062 61.61979 258.10938 61.02604Q257.59375 60.43229 256.8125 60.43229Q256.03125 60.43229 255.5 61.02604Q254.98438 61.604164 254.98438 62.80729ZM261.28125 65.916664L261.28125 59.697914L262.23438 59.697914L262.23438 60.635414Q262.59375 59.979164 262.89062 59.77604Q263.20312 59.55729 263.57812 59.55729Q264.10938 59.55729 264.65625 59.885414L264.29688 60.86979Q263.90625 60.635414 263.53125 60.635414Q263.17188 60.635414 262.89062 60.854164Q262.625 61.05729 262.51562 61.43229Q262.32812 61.99479 262.32812 62.65104L262.32812 65.916664L261.28125 65.916664Z" fill-rule="nonzero"/><path fill="#fbbc04" d="M280.5 56.916668C280.5 56.364384 280.94772 55.916668 281.5 55.916668L291.5 55.916668C292.05228 55.916668 292.5 56.364384 292.5 56.916668L292.5 66.916664C292.5 67.46895 292.05228 67.916664 291.5 67.916664L281.5 67.916664C280.94772 67.916664 280.5 67.46895 280.5 66.916664Z" fill-rule="nonzero"/><path fill="#1a1a1a" d="M303.875 65.916664L300.54688 57.322914L301.78125 57.322914L304.01562 63.572914Q304.28125 64.322914 304.46875 64.979164Q304.67188 64.27604 304.9375 63.572914L307.25 57.322914L308.40625 57.322914L305.04688 65.916664L303.875 65.916664ZM313.54688 63.916664L314.64062 64.041664Q314.39062 64.99479 313.6875 65.52604Q312.98438 66.05729 311.90625 66.05729Q310.54688 66.05729 309.73438 65.21354Q308.9375 64.36979 308.9375 62.854164Q308.9375 61.291664 309.75 60.43229Q310.5625 59.55729 311.84375 59.55729Q313.09375 59.55729 313.875 60.40104Q314.67188 61.24479 314.67188 62.791664Q314.67188 62.885414 314.67188 63.072914L310.03125 63.072914Q310.09375 64.104164 310.60938 64.65104Q311.125 65.18229 311.90625 65.18229Q312.48438 65.18229 312.89062 64.885414Q313.3125 64.572914 313.54688 63.916664ZM310.09375 62.21354L313.5625 62.21354Q313.5 61.416664 313.17188 61.02604Q312.65625 60.416664 311.85938 60.416664Q311.125 60.416664 310.625 60.90104Q310.14062 61.385414 310.09375 62.21354ZM320.35938 63.635414L321.39062 63.77604Q321.21875 64.83854 320.51562 65.447914Q319.8125 66.05729 318.79688 66.05729Q317.51562 66.05729 316.73438 65.229164Q315.96875 64.385414 315.96875 62.822914Q315.96875 61.822914 316.29688 61.072914Q316.64062 60.30729 317.3125 59.93229Q318.0 59.55729 318.8125 59.55729Q319.8125 59.55729 320.45312 60.072914Q321.10938 60.572914 321.29688 61.52604L320.26562 61.68229Q320.125 61.05729 319.75 60.74479Q319.375 60.416664 318.84375 60.416664Q318.04688 60.416664 317.54688 60.99479Q317.04688 61.55729 317.04688 62.791664Q317.04688 64.05729 317.53125 64.61979Q318.01562 65.18229 318.78125 65.18229Q319.40625 65.18229 319.8125 64.80729Q320.23438 64.43229 320.35938 63.635414ZM324.59375 64.979164L324.75 65.90104Q324.29688 65.99479 323.95312 65.99479Q323.375 65.99479 323.0625 65.822914Q322.75 65.635414 322.60938 65.33854Q322.48438 65.041664 322.48438 64.08854L322.48438 60.510414L321.71875 60.510414L321.71875 59.697914L322.48438 59.697914L322.48438 58.15104L323.53125 57.52604L323.53125 59.697914L324.59375 59.697914L324.59375 60.510414L323.53125 60.510414L323.53125 64.15104Q323.53125 64.604164 323.57812 64.729164Q323.64062 64.854164 323.76562 64.93229Q323.89062 65.010414 324.125 65.010414Q324.3125 65.010414 324.59375 64.979164ZM324.90625 62.80729Q324.90625 61.072914 325.85938 60.24479Q326.65625 59.55729 327.8125 59.55729Q329.09375 59.55729 329.90625 60.40104Q330.73438 61.229164 330.73438 62.71354Q330.73438 63.916664 330.375 64.604164Q330.01562 65.291664 329.3125 65.68229Q328.625 66.05729 327.8125 66.05729Q326.51562 66.05729 325.70312 65.229164Q324.90625 64.385414 324.90625 62.80729ZM325.98438 62.80729Q325.98438 63.99479 326.5 64.58854Q327.03125 65.18229 327.8125 65.18229Q328.60938 65.18229 329.125 64.58854Q329.64062 63.99479 329.64062 62.77604Q329.64062 61.61979 329.10938 61.02604Q328.59375 60.43229 327.8125 60.43229Q327.03125 60.43229 326.5 61.02604Q325.98438 61.604164 325.98438 62.80729ZM332.28125 65.916664L332.28125 59.697914L333.23438 59.697914L333.23438 60.635414Q333.59375 59.979164 333.89062 59.77604Q334.20312 59.55729 334.57812 59.55729Q335.10938 59.55729 335.65625 59.885414L335.29688 60.86979Q334.90625 60.635414 334.53125 60.635414Q334.17188 60.635414 333.89062 60.854164Q333.625 61.05729 333.51562 61.43229Q333.32812 61.99479 333.32812 62.65104L333.32812 65.916664L332.28125 65.916664Z" fill-rule="nonzero"/><path fill="#34a853" d="M351.5 56.916668C351.5 56.364384 351.94772 55.916668 352.5 55.916668L362.5 55.916668C363.05228 55.916668 363.5 56.364384 363.5 56.916668L363.5 66.916664C363.5 67.46895 363.05228 67.916664 362.5 67.916664L352.5 67.916664C351.94772 67.916664 351.5 67.46895 351.5 66.916664Z" fill-rule="nonzero"/><path fill="#1a1a1a" d="M374.875 65.916664L371.54688 57.322914L372.78125 57.322914L375.01562 63.572914Q375.28125 64.322914 375.46875 64.979164Q375.67188 64.27604 375.9375 63.572914L378.25 57.322914L379.40625 57.322914L376.04688 65.916664L374.875 65.916664ZM384.54688 63.916664L385.64062 64.041664Q385.39062 64.99479 384.6875 65.52604Q383.98438 66.05729 382.90625 66.05729Q381.54688 66.05729 380.73438 65.21354Q379.9375 64.36979 379.9375 62.854164Q379.9375 61.291664 380.75 60.43229Q381.5625 59.55729 382.84375 59.55729Q384.09375 59.55729 384.875 60.40104Q385.67188 61.24479 385.67188 62.791664Q385.67188 62.885414 385.67188 63.072914L381.03125 63.072914Q381.09375 64.104164 381.60938 64.65104Q382.125 65.18229 382.90625 65.18229Q383.48438 65.18229 383.89062 64.885414Q384.3125 64.572914 384.54688 63.916664ZM381.09375 62.21354L384.5625 62.21354Q384.5 61.416664 384.17188 61.02604Q383.65625 60.416664 382.85938 60.416664Q382.125 60.416664 381.625 60.90104Q381.14062 61.385414 381.09375 62.21354ZM391.35938 63.635414L392.39062 63.77604Q392.21875 64.83854 391.51562 65.447914Q390.8125 66.05729 389.79688 66.05729Q388.51562 66.05729 387.73438 65.229164Q386.96875 64.385414 386.96875 62.822914Q386.96875 61.822914 387.29688 61.072914Q387.64062 60.30729 388.3125 59.93229Q389.0 59.55729 389.8125 59.55729Q390.8125 59.55729 391.45312 60.072914Q392.10938 60.572914 392.29688 61.52604L391.26562 61.68229Q391.125 61.05729 390.75 60.74479Q390.375 60.416664 389.84375 60.416664Q389.04688 60.416664 388.54688 60.99479Q388.04688 61.55729 388.04688 62.791664Q388.04688 64.05729 388.53125 64.61979Q389.01562 65.18229 389.78125 65.18229Q390.40625 65.18229 390.8125 64.80729Q391.23438 64.43229 391.35938 63.635414ZM395.59375 64.979164L395.75 65.90104Q395.29688 65.99479 394.95312 65.99479Q394.375 65.99479 394.0625 65.822914Q393.75 65.635414 393.60938 65.33854Q393.48438 65.041664 393.48438 64.08854L393.48438 60.510414L392.71875 60.510414L392.71875 59.697914L393.48438 59.697914L393.48438 58.15104L394.53125 57.52604L394.53125 59.697914L395.59375 59.697914L395.59375 60.510414L394.53125 60.510414L394.53125 64.15104Q394.53125 64.604164 394.57812 64.729164Q394.64062 64.854164 394.76562 64.93229Q394.89062 65.010414 395.125 65.010414Q395.3125 65.010414 395.59375 64.979164ZM395.90625 62.80729Q395.90625 61.072914 396.85938 60.24479Q397.65625 59.55729 398.8125 59.55729Q400.09375 59.55729 400.90625 60.40104Q401.73438 61.229164 401.73438 62.71354Q401.73438 63.916664 401.375 64.604164Q401.01562 65.291664 400.3125 65.68229Q399.625 66.05729 398.8125 66.05729Q397.51562 66.05729 396.70312 65.229164Q395.90625 64.385414 395.90625 62.80729ZM396.98438 62.80729Q396.98438 63.99479 397.5 64.58854Q398.03125 65.18229 398.8125 65.18229Q399.60938 65.18229 400.125 64.58854Q400.64062 63.99479 400.64062 62.77604Q400.64062 61.61979 400.10938 61.02604Q399.59375 60.43229 398.8125 60.43229Q398.03125 60.43229 397.5 61.02604Q396.98438 61.604164 396.98438 62.80729ZM403.28125 65.916664L403.28125 59.697914L404.23438 59.697914L404.23438 60.635414Q404.59375 59.979164 404.89062 59.77604Q405.20312 59.55729 405.57812 59.55729Q406.10938 59.55729 406.65625 59.885414L406.29688 60.86979Q405.90625 60.635414 405.53125 60.635414Q405.17188 60.635414 404.89062 60.854164Q404.625 61.05729 404.51562 61.43229Q404.32812 61.99479 404.32812 62.65104L404.32812 65.916664L403.28125 65.916664ZM407.15625 62.166664L407.15625 61.18229L412.84375 58.77604L412.84375 59.822914L408.32812 61.666664L412.84375 63.541664L412.84375 64.58854L407.15625 62.166664ZM416.60938 65.916664L416.60938 58.33854L413.78125 58.33854L413.78125 57.322914L420.59375 57.322914L420.59375 58.33854L417.75 58.33854L417.75 65.916664L416.60938 65.916664ZM426.84375 62.166664L421.15625 64.58854L421.15625 63.541664L425.65625 61.666664L421.15625 59.822914L421.15625 58.77604L426.84375 61.18229L426.84375 62.166664Z" fill-rule="nonzero"/><path fill="#ff6d01" d="M443.5 56.916668C443.5 56.364384 443.94772 55.916668 444.5 55.916668L454.5 55.916668C455.05228 55.916668 455.5 56.364384 455.5 56.916668L455.5 66.916664C455.5 67.46895 455.05228 67.916664 454.5 67.916664L444.5 67.916664C443.94772 67.916664 443.5 67.46895 443.5 66.916664Z" fill-rule="nonzero"/><path fill="#1a1a1a" d="M463.48438 65.916664L466.78125 57.322914L468.0 57.322914L471.51562 65.916664L470.23438 65.916664L469.21875 63.30729L465.64062 63.30729L464.6875 65.916664L463.48438 65.916664ZM465.96875 62.385414L468.875 62.385414L467.98438 60.010414Q467.5625 58.93229 467.375 58.229164Q467.20312 59.05729 466.90625 59.86979L465.96875 62.385414ZM472.28125 65.916664L472.28125 59.697914L473.23438 59.697914L473.23438 60.635414Q473.59375 59.979164 473.89062 59.77604Q474.20312 59.55729 474.57812 59.55729Q475.10938 59.55729 475.65625 59.885414L475.29688 60.86979Q474.90625 60.635414 474.53125 60.635414Q474.17188 60.635414 473.89062 60.854164Q473.625 61.05729 473.51562 61.43229Q473.32812 61.99479 473.32812 62.65104L473.32812 65.916664L472.28125 65.916664ZM476.28125 65.916664L476.28125 59.697914L477.23438 59.697914L477.23438 60.635414Q477.59375 59.979164 477.89062 59.77604Q478.20312 59.55729 478.57812 59.55729Q479.10938 59.55729 479.65625 59.885414L479.29688 60.86979Q478.90625 60.635414 478.53125 60.635414Q478.17188 60.635414 477.89062 60.854164Q477.625 61.05729 477.51562 61.43229Q477.32812 61.99479 477.32812 62.65104L477.32812 65.916664L476.28125 65.916664ZM484.35938 65.15104Q483.76562 65.65104 483.21875 65.854164Q482.6875 66.05729 482.0625 66.05729Q481.03125 66.05729 480.48438 65.55729Q479.9375 65.05729 479.9375 64.27604Q479.9375 63.822914 480.14062 63.447914Q480.34375 63.05729 480.6875 62.83854Q481.03125 62.604164 481.45312 62.49479Q481.75 62.40104 482.39062 62.322914Q483.65625 62.18229 484.26562 61.96354Q484.26562 61.74479 484.26562 61.697914Q484.26562 61.041664 483.96875 60.77604Q483.5625 60.43229 482.76562 60.43229Q482.03125 60.43229 481.67188 60.697914Q481.3125 60.947914 481.14062 61.604164L480.10938 61.46354Q480.25 60.80729 480.57812 60.40104Q480.90625 59.99479 481.51562 59.77604Q482.125 59.55729 482.92188 59.55729Q483.71875 59.55729 484.21875 59.74479Q484.71875 59.93229 484.95312 60.21354Q485.1875 60.49479 485.28125 60.93229Q485.32812 61.197914 485.32812 61.90104L485.32812 63.30729Q485.32812 64.77604 485.39062 65.166664Q485.46875 65.55729 485.67188 65.916664L484.5625 65.916664Q484.40625 65.58854 484.35938 65.15104ZM484.26562 62.791664Q483.6875 63.02604 482.54688 63.197914Q481.89062 63.291664 481.625 63.416664Q481.35938 63.52604 481.20312 63.74479Q481.0625 63.96354 481.0625 64.24479Q481.0625 64.666664 481.375 64.947914Q481.70312 65.229164 482.3125 65.229164Q482.92188 65.229164 483.39062 64.96354Q483.875 64.697914 484.09375 64.229164Q484.26562 63.86979 484.26562 63.18229L484.26562 62.791664ZM487.25 68.30729L487.125 67.322914Q487.46875 67.416664 487.73438 67.416664Q488.07812 67.416664 488.28125 67.291664Q488.5 67.18229 488.64062 66.979164Q488.73438 66.80729 488.96875 66.18229Q488.98438 66.104164 489.0625 65.93229L486.6875 59.697914L487.82812 59.697914L489.125 63.291664Q489.375 63.979164 489.57812 64.74479Q489.76562 64.010414 490.01562 63.322914L491.34375 59.697914L492.39062 59.697914L490.03125 66.02604Q489.64062 67.041664 489.4375 67.43229Q489.15625 67.96354 488.78125 68.197914Q488.42188 68.447914 487.92188 68.447914Q487.625 68.447914 487.25 68.30729Z" fill-rule="nonzero"/><path fill="#757575" d="M121.484375 37.55L121.484375 23.2375L124.34375 23.2375L127.71875 33.3625Q128.1875 34.784374 128.40625 35.4875Q128.65625 34.70625 129.17188 33.190624L132.59375 23.2375L135.14062 23.2375L135.14062 37.55L133.32812 37.55L133.32812 25.565624L129.15625 37.55L127.453125 37.55L123.3125 25.3625L123.3125 37.55L121.484375 37.55ZM137.67188 32.3625Q137.67188 29.4875 139.26562 28.096874Q140.60938 26.940624 142.53125 26.940624Q144.67188 26.940624 146.01562 28.346874Q147.375 29.753124 147.375 32.221874Q147.375 34.221874 146.78125 35.378124Q146.1875 36.51875 145.03125 37.159374Q143.89062 37.784374 142.53125 37.784374Q140.34375 37.784374 139.0 36.39375Q137.67188 34.9875 137.67188 32.3625ZM139.46875 32.3625Q139.46875 34.3625 140.32812 35.346874Q141.20312 36.33125 142.53125 36.33125Q143.84375 36.33125 144.70312 35.346874Q145.57812 34.346874 145.57812 32.3Q145.57812 30.378124 144.70312 29.39375Q143.82812 28.39375 142.53125 28.39375Q141.20312 28.39375 140.32812 29.39375Q139.46875 30.378124 139.46875 32.3625ZM149.3125 37.55L149.3125 27.175L150.90625 27.175L150.90625 28.659374Q152.04688 26.940624 154.20312 26.940624Q155.14062 26.940624 155.92188 27.284374Q156.71875 27.6125 157.10938 28.159374Q157.5 28.70625 157.65625 29.45625Q157.75 29.95625 157.75 31.175L157.75 37.55L155.98438 37.55L155.98438 31.2375Q155.98438 30.159374 155.78125 29.628124Q155.57812 29.096874 155.04688 28.784374Q154.53125 28.471874 153.82812 28.471874Q152.70312 28.471874 151.89062 29.190624Q151.07812 29.89375 151.07812 31.878124L151.07812 37.55L149.3125 37.55ZM159.67188 32.3625Q159.67188 29.4875 161.26562 28.096874Q162.60938 26.940624 164.53125 26.940624Q166.67188 26.940624 168.01562 28.346874Q169.375 29.753124 169.375 32.221874Q169.375 34.221874 168.78125 35.378124Q168.1875 36.51875 167.03125 37.159374Q165.89062 37.784374 164.53125 37.784374Q162.34375 37.784374 161.0 36.39375Q159.67188 34.9875 159.67188 32.3625ZM161.46875 32.3625Q161.46875 34.3625 162.32812 35.346874Q163.20312 36.33125 164.53125 36.33125Q165.84375 36.33125 166.70312 35.346874Q167.57812 34.346874 167.57812 32.3Q167.57812 30.378124 166.70312 29.39375Q165.82812 28.39375 164.53125 28.39375Q163.20312 28.39375 162.32812 29.39375Q161.46875 30.378124 161.46875 32.3625ZM177.46875 37.55L177.46875 23.2375L179.35938 23.2375L179.35938 35.8625L186.40625 35.8625L186.40625 37.55L177.46875 37.55ZM188.46875 37.55L188.46875 23.2375L190.35938 23.2375L190.35938 35.8625L197.40625 35.8625L197.40625 37.55L188.46875 37.55ZM203.64062 37.55L198.09375 23.2375L200.14062 23.2375L203.85938 33.628124Q204.3125 34.878124 204.60938 35.971874Q204.9375 34.8 205.39062 33.628124L209.25 23.2375L211.1875 23.2375L205.57812 37.55L203.64062 37.55ZM212.48438 37.55L212.48438 23.2375L215.34375 23.2375L218.71875 33.3625Q219.1875 34.784374 219.40625 35.4875Q219.65625 34.70625 220.17188 33.190624L223.59375 23.2375L226.14062 23.2375L226.14062 37.55L224.32812 37.55L224.32812 25.565624L220.15625 37.55L218.45312 37.55L214.3125 25.3625L214.3125 37.55L212.48438 37.55ZM234.0 37.8L238.15625 22.9875L239.5625 22.9875L235.42188 37.8L234.0 37.8ZM247.32812 25.253124L247.32812 23.2375L249.09375 23.2375L249.09375 25.253124L247.32812 25.253124ZM247.32812 37.55L247.32812 27.175L249.09375 27.175L249.09375 37.55L247.32812 37.55ZM251.48438 37.55L251.48438 23.2375L254.34375 23.2375L257.71875 33.3625Q258.1875 34.784374 258.40625 35.4875Q258.65625 34.70625 259.17188 33.190624L262.59375 23.2375L265.14062 23.2375L265.14062 37.55L263.32812 37.55L263.32812 25.565624L259.15625 37.55L257.45312 37.55L253.3125 25.3625L253.3125 37.55L251.48438 37.55ZM275.09375 36.26875Q274.10938 37.096874 273.20312 37.440624Q272.29688 37.784374 271.26562 37.784374Q269.5625 37.784374 268.64062 36.95625Q267.71875 36.1125 267.71875 34.815624Q267.71875 34.05 268.0625 33.425Q268.42188 32.8 268.98438 32.425Q269.54688 32.034374 270.25 31.83125Q270.76562 31.70625 271.8125 31.565624Q273.9375 31.315624 274.9375 30.971874Q274.95312 30.6125 274.95312 30.503124Q274.95312 29.440624 274.45312 28.9875Q273.78125 28.39375 272.45312 28.39375Q271.20312 28.39375 270.60938 28.83125Q270.03125 29.26875 269.75 30.378124L268.03125 30.14375Q268.26562 29.034374 268.79688 28.3625Q269.32812 27.675 270.34375 27.315624Q271.35938 26.940624 272.70312 26.940624Q274.03125 26.940624 274.85938 27.253124Q275.6875 27.565624 276.07812 28.05Q276.46875 28.51875 276.625 29.2375Q276.71875 29.690624 276.71875 30.8625L276.71875 33.20625Q276.71875 35.659374 276.82812 36.315624Q276.9375 36.95625 277.28125 37.55L275.4375 37.55Q275.17188 37.003124 275.09375 36.26875ZM274.9375 32.346874Q273.98438 32.7375 272.0625 33.003124Q270.98438 33.159374 270.53125 33.3625Q270.09375 33.55 269.84375 33.925Q269.59375 34.3 269.59375 34.76875Q269.59375 35.471874 270.125 35.940624Q270.65625 36.409374 271.6875 36.409374Q272.70312 36.409374 273.48438 35.971874Q274.28125 35.51875 274.65625 34.753124Q274.9375 34.14375 274.9375 32.9875L274.9375 32.346874ZM286.09375 33.753124L287.8125 33.971874Q287.53125 35.76875 286.35938 36.784374Q285.20312 37.784374 283.5 37.784374Q281.375 37.784374 280.07812 36.39375Q278.78125 35.003124 278.78125 32.409374Q278.78125 30.721874 279.32812 29.471874Q279.89062 28.20625 281.03125 27.58125Q282.17188 26.940624 283.51562 26.940624Q285.20312 26.940624 286.26562 27.8Q287.34375 28.659374 287.65625 30.221874L285.9375 30.4875Q285.70312 29.440624 285.07812 28.925Q284.45312 28.39375 283.57812 28.39375Q282.25 28.39375 281.42188 29.346874Q280.59375 30.3 280.59375 32.346874Q280.59375 34.440624 281.39062 35.39375Q282.1875 36.33125 283.48438 36.33125Q284.51562 36.33125 285.20312 35.70625Q285.90625 35.065624 286.09375 33.753124ZM295.54688 37.55L295.54688 23.2375L300.9375 23.2375Q302.375 23.2375 303.125 23.3625Q304.17188 23.55 304.89062 24.05Q305.60938 24.534374 306.03125 25.425Q306.46875 26.315624 306.46875 27.378124Q306.46875 29.20625 305.29688 30.471874Q304.14062 31.721874 301.10938 31.721874L297.4375 31.721874L297.4375 37.55L295.54688 37.55ZM297.4375 30.034374L301.14062 30.034374Q302.96875 30.034374 303.73438 29.3625Q304.51562 28.675 304.51562 27.425Q304.51562 26.534374 304.0625 25.89375Q303.60938 25.253124 302.875 25.05Q302.39062 24.925 301.09375 24.925L297.4375 24.925L297.4375 30.034374ZM308.29688 37.55L308.29688 27.175L309.875 27.175L309.875 28.753124Q310.48438 27.64375 311.0 27.3Q311.51562 26.940624 312.125 26.940624Q313.01562 26.940624 313.9375 27.503124L313.32812 29.14375Q312.6875 28.753124 312.04688 28.753124Q311.46875 28.753124 311.0 29.1125Q310.54688 29.45625 310.34375 30.065624Q310.0625 31.003124 310.0625 32.1125L310.0625 37.55L308.29688 37.55ZM314.67188 32.3625Q314.67188 29.4875 316.26562 28.096874Q317.60938 26.940624 319.53125 26.940624Q321.67188 26.940624 323.01562 28.346874Q324.375 29.753124 324.375 32.221874Q324.375 34.221874 323.78125 35.378124Q323.1875 36.51875 322.03125 37.159374Q320.89062 37.784374 319.53125 37.784374Q317.34375 37.784374 316.0 36.39375Q314.67188 34.9875 314.67188 32.3625ZM316.46875 32.3625Q316.46875 34.3625 317.32812 35.346874Q318.20312 36.33125 319.53125 36.33125Q320.84375 36.33125 321.70312 35.346874Q322.57812 34.346874 322.57812 32.3Q322.57812 30.378124 321.70312 29.39375Q320.82812 28.39375 319.53125 28.39375Q318.20312 28.39375 317.32812 29.39375Q316.46875 30.378124 316.46875 32.3625ZM331.0 37.8L335.15625 22.9875L336.5625 22.9875L332.42188 37.8L331.0 37.8ZM343.09375 37.55L348.625 30.08125L343.75 23.2375L346.0 23.2375L348.59375 26.909374Q349.40625 28.05 349.75 28.659374Q350.23438 27.878124 350.875 27.034374L353.76562 23.2375L355.82812 23.2375L350.79688 29.9875L356.21875 37.55L353.875 37.55L350.26562 32.440624Q349.96875 32.003124 349.64062 31.4875Q349.15625 32.26875 348.95312 32.565624L345.35938 37.55L343.09375 37.55ZM364.42188 34.20625L366.23438 34.440624Q365.8125 36.01875 364.64062 36.909374Q363.48438 37.784374 361.67188 37.784374Q359.40625 37.784374 358.0625 36.39375Q356.73438 34.9875 356.73438 32.45625Q356.73438 29.83125 358.07812 28.39375Q359.42188 26.940624 361.57812 26.940624Q363.65625 26.940624 364.96875 28.3625Q366.29688 29.76875 366.29688 32.346874Q366.29688 32.503124 366.28125 32.815624L358.54688 32.815624Q358.64062 34.51875 359.51562 35.425Q360.39062 36.33125 361.6875 36.33125Q362.65625 36.33125 363.32812 35.83125Q364.01562 35.315624 364.42188 34.20625ZM358.64062 31.3625L364.4375 31.3625Q364.32812 30.065624 363.78125 29.409374Q362.9375 28.39375 361.59375 28.39375Q360.39062 28.39375 359.5625 29.20625Q358.73438 30.003124 358.64062 31.3625ZM367.67188 32.3625Q367.67188 29.4875 369.26562 28.096874Q370.60938 26.940624 372.53125 26.940624Q374.67188 26.940624 376.01562 28.346874Q377.375 29.753124 377.375 32.221874Q377.375 34.221874 376.78125 35.378124Q376.1875 36.51875 375.03125 37.159374Q373.89062 37.784374 372.53125 37.784374Q370.34375 37.784374 369.0 36.39375Q367.67188 34.9875 367.67188 32.3625ZM369.46875 32.3625Q369.46875 34.3625 370.32812 35.346874Q371.20312 36.33125 372.53125 36.33125Q373.84375 36.33125 374.70312 35.346874Q375.57812 34.346874 375.57812 32.3Q375.57812 30.378124 374.70312 29.39375Q373.82812 28.39375 372.53125 28.39375Q371.20312 28.39375 370.32812 29.39375Q369.46875 30.378124 369.46875 32.3625ZM379.3125 37.55L379.3125 27.175L380.90625 27.175L380.90625 28.659374Q382.04688 26.940624 384.20312 26.940624Q385.14062 26.940624 385.92188 27.284374Q386.71875 27.6125 387.10938 28.159374Q387.5 28.70625 387.65625 29.45625Q387.75 29.95625 387.75 31.175L387.75 37.55L385.98438 37.55L385.98438 31.2375Q385.98438 30.159374 385.78125 29.628124Q385.57812 29.096874 385.04688 28.784374Q384.53125 28.471874 383.82812 28.471874Q382.70312 28.471874 381.89062 29.190624Q381.07812 29.89375 381.07812 31.878124L381.07812 37.55L379.3125 37.55ZM395.84375 33.76875L397.59375 33.534374Q397.90625 35.034374 398.625 35.690624Q399.35938 36.346874 400.40625 36.346874Q401.64062 36.346874 402.48438 35.4875Q403.34375 34.628124 403.34375 33.3625Q403.34375 32.14375 402.54688 31.3625Q401.76562 30.58125 400.54688 30.58125Q400.04688 30.58125 399.3125 30.76875L399.5 29.221874Q399.67188 29.253124 399.78125 29.253124Q400.90625 29.253124 401.79688 28.675Q402.70312 28.08125 402.70312 26.8625Q402.70312 25.89375 402.04688 25.253124Q401.39062 24.6125 400.35938 24.6125Q399.34375 24.6125 398.65625 25.26875Q397.96875 25.909374 397.78125 27.190624L396.01562 26.878124Q396.34375 25.1125 397.48438 24.14375Q398.625 23.175 400.32812 23.175Q401.5 23.175 402.48438 23.675Q403.46875 24.175 403.98438 25.05Q404.51562 25.925 404.51562 26.89375Q404.51562 27.815624 404.01562 28.58125Q403.51562 29.346874 402.54688 29.8Q403.8125 30.08125 404.51562 31.01875Q405.21875 31.940624 405.21875 33.315624Q405.21875 35.190624 403.84375 36.503124Q402.48438 37.8 400.39062 37.8Q398.5 37.8 397.25 36.675Q396.01562 35.55 395.84375 33.76875ZM407.8125 37.55L407.8125 35.55L409.8125 35.55L409.8125 37.55L407.8125 37.55ZM412.82812 30.4875Q412.82812 27.95625 413.34375 26.409374Q413.875 24.846874 414.90625 24.01875Q415.9375 23.175 417.5 23.175Q418.65625 23.175 419.51562 23.64375Q420.39062 24.096874 420.95312 24.971874Q421.51562 25.846874 421.84375 27.1125Q422.17188 28.3625 422.17188 30.4875Q422.17188 33.003124 421.64062 34.55Q421.125 36.096874 420.09375 36.95625Q419.07812 37.8 417.5 37.8Q415.42188 37.8 414.25 36.315624Q412.82812 34.51875 412.82812 30.4875ZM414.64062 30.4875Q414.64062 34.01875 415.45312 35.190624Q416.28125 36.346874 417.5 36.346874Q418.70312 36.346874 419.53125 35.175Q420.35938 34.003124 420.35938 30.4875Q420.35938 26.95625 419.53125 25.8Q418.70312 24.628124 417.48438 24.628124Q416.26562 24.628124 415.54688 25.659374Q414.64062 26.95625 414.64062 30.4875ZM423.82812 30.4875Q423.82812 27.95625 424.34375 26.409374Q424.875 24.846874 425.90625 24.01875Q426.9375 23.175 428.5 23.175Q429.65625 23.175 430.51562 23.64375Q431.39062 24.096874 431.95312 24.971874Q432.51562 25.846874 432.84375 27.1125Q433.17188 28.3625 433.17188 30.4875Q433.17188 33.003124 432.64062 34.55Q432.125 36.096874 431.09375 36.95625Q430.07812 37.8 428.5 37.8Q426.42188 37.8 425.25 36.315624Q423.82812 34.51875 423.82812 30.4875ZM425.64062 30.4875Q425.64062 34.01875 426.45312 35.190624Q427.28125 36.346874 428.5 36.346874Q429.70312 36.346874 430.53125 35.175Q431.35938 34.003124 431.35938 30.4875Q431.35938 26.95625 430.53125 25.8Q429.70312 24.628124 428.48438 24.628124Q427.26562 24.628124 426.54688 25.659374Q425.64062 26.95625 425.64062 30.4875ZM448.25 31.940624L448.25 30.253124L454.3125 30.2375L454.3125 35.55Q452.90625 36.675 451.42188 37.2375Q449.9375 37.8 448.375 37.8Q446.26562 37.8 444.54688 36.89375Q442.82812 35.9875 441.9375 34.284374Q441.0625 32.565624 441.0625 30.45625Q441.0625 28.3625 441.9375 26.565624Q442.8125 24.753124 444.45312 23.878124Q446.09375 22.9875 448.23438 22.9875Q449.78125 22.9875 451.03125 23.4875Q452.29688 23.9875 453.0 24.89375Q453.71875 25.784374 454.09375 27.2375L452.39062 27.70625Q452.0625 26.6125 451.57812 25.9875Q451.10938 25.3625 450.21875 24.9875Q449.32812 24.6125 448.25 24.6125Q446.9375 24.6125 445.98438 25.003124Q445.04688 25.39375 444.46875 26.05Q443.89062 26.690624 443.5625 27.45625Q443.01562 28.784374 443.01562 30.346874Q443.01562 32.253124 443.67188 33.55Q444.34375 34.83125 445.59375 35.45625Q446.85938 36.08125 448.26562 36.08125Q449.5 36.08125 450.67188 35.6125Q451.84375 35.14375 452.45312 34.596874L452.45312 31.940624L448.25 31.940624ZM457.60938 37.55L457.60938 23.2375L459.5 23.2375L459.5 29.1125L466.9375 29.1125L466.9375 23.2375L468.82812 23.2375L468.82812 37.55L466.9375 37.55L466.9375 30.8L459.5 30.8L459.5 37.55L457.60938 37.55ZM470.39062 37.55L470.39062 36.128124L477.0 28.55Q475.875 28.596874 475.01562 28.596874L470.78125 28.596874L470.78125 27.175L479.26562 27.175L479.26562 28.346874L473.64062 34.925L472.5625 36.128124Q473.73438 36.034374 474.78125 36.034374L479.57812 36.034374L479.57812 37.55L470.39062 37.55Z" fill-rule="nonzero"/></svg>